/* XPM */
static char *_4580c0138ba42ecc89a60372fde9484gshAnNtSB8eZFYSX[] = {
/* columns rows colors chars-per-pixel */
"128 128 5 1 ",
"  c None",
". c black",
"X c #897F00",
"o c #D8C800",
"O c #FFF57E",
/* pixels */
"                                                                                                                                ",
"                                                                                                                                ",
"                                                                                                                                ",
"                                                                                                                                ",
"                                                                                                                                ",
"                                                                                                                                ",
"                                                                                                                                ",
"                                                                                                                                ",
"                                                                                                                                ",
"                                                                                                                                ",
"                                                                                                                                ",
"                                                                                                                                ",
"                                                                                                                                ",
"                                                                                                                                ",
"                                                                                                                                ",
"                                                                                                                                ",
"                                                                                                                                ",
"                                                                                                                                ",
"                                                                                                                                ",
"                                                                                                                                ",
"                                                                                                                                ",
"                                                                                                                                ",
"                                                                                                                                ",
"                                                                                                                                ",
"                                                                                                                                ",
"                                                                                                                                ",
"                                                                                                                                ",
"                                                                                                                                ",
"                                                                                                                                ",
"                                                                                                                                ",
"                                                                                                                                ",
"                                                                                                                                ",
"                                                    ....................                                                        ",
"                                                    ....................                                                        ",
"                                                    ....................                                                        ",
"                                                    ....................                                                        ",
"                                            ........OOOOOOOOOOOOOOOOOOOO........                                                ",
"                                            ........OOOOOOOOOOOOOOOOOOOO........                                                ",
"                                            ........OOOOOOOOOOOOOOOOOOOO........                                                ",
"                                            ........OOOOOOOOOOOOOOOOOOOO........                                                ",
"                                        ....OOOOOOOOooooooooooooooooooooOOOOOOOO....                                            ",
"                                        ....OOOOOOOOooooooooooooooooooooOOOOOOOO....                                            ",
"                                        ....OOOOOOOOooooooooooooooooooooOOOOOOOO....                                            ",
"                                        ....OOOOOOOOooooooooooooooooooooOOOOOOOO....                                            ",
"                                    ....OOOOooooooooooooooooooooooooooooooooooooOOOO....                                        ",
"                                    ....OOOOooooooooooooooooooooooooooooooooooooOOOO....                                        ",
"                                    ....OOOOooooooooooooooooooooooooooooooooooooOOOO....                                        ",
"                                    ....OOOOooooooooooooooooooooooooooooooooooooOOOO....                                        ",
"                                    ....ooooooooooooooooooooooooooooooooooooooooOOOO....                                        ",
"                                    ....ooooooooooooooooooooooooooooooooooooooooOOOO....                                        ",
"                                    ....ooooooooooooooooooooooooooooooooooooooooOOOO....                                        ",
"                                    ....ooooooooooooooooooooooooooooooooooooooooOOOO....                                        ",
"                                ....XXXXooooooooooooooooooooooooooooooooooooooooooooOOOO....                                    ",
"                                ....XXXXooooooooooooooooooooooooooooooooooooooooooooOOOO....                                    ",
"                                ....XXXXooooooooooooooooooooooooooooooooooooooooooooOOOO....                                    ",
"                                ....XXXXooooooooooooooooooooooooooooooooooooooooooooOOOO....                                    ",
"                                ....XXXXooooooooooooooooooooooooooooooooooooooooooooOOOO....                                    ",
"                                ....XXXXooooooooooooooooooooooooooooooooooooooooooooOOOO....                                    ",
"                                ....XXXXooooooooooooooooooooooooooooooooooooooooooooOOOO....                                    ",
"                                ....XXXXooooooooooooooooooooooooooooooooooooooooooooOOOO....                                    ",
"                                ....XXXXooooooooooooooooooooooooooooooooooooooooooooOOOO....                                    ",
"                                ....XXXXooooooooooooooooooooooooooooooooooooooooooooOOOO....                                    ",
"                                ....XXXXooooooooooooooooooooooooooooooooooooooooooooOOOO....                                    ",
"                                ....XXXXooooooooooooooooooooooooooooooooooooooooooooOOOO....                                    ",
"                                ....XXXXooooooooooooooooooooooooooooooooooooooooooooOOOO....                                    ",
"                                ....XXXXooooooooooooooooooooooooooooooooooooooooooooOOOO....                                    ",
"                                ....XXXXooooooooooooooooooooooooooooooooooooooooooooOOOO....                                    ",
"                                ....XXXXooooooooooooooooooooooooooooooooooooooooooooOOOO....                                    ",
"                                ....XXXXooooooooooooooooooooooooooooooooooooooooooooOOOO....                                    ",
"                                ....XXXXooooooooooooooooooooooooooooooooooooooooooooOOOO....                                    ",
"                                ....XXXXooooooooooooooooooooooooooooooooooooooooooooOOOO....                                    ",
"                                ....XXXXooooooooooooooooooooooooooooooooooooooooooooOOOO....                                    ",
"                                    ....XXXXooooooooooooooooooooooooooooooooooooOOOO....                                        ",
"                                    ....XXXXooooooooooooooooooooooooooooooooooooOOOO....                                        ",
"                                    ....XXXXooooooooooooooooooooooooooooooooooooOOOO....                                        ",
"                                    ....XXXXooooooooooooooooooooooooooooooooooooOOOO....                                        ",
"                                    ....XXXXooooooooooooooooooooooooooooooooooooOOOO....                                        ",
"                                    ....XXXXooooooooooooooooooooooooooooooooooooOOOO....                                        ",
"                                    ....XXXXooooooooooooooooooooooooooooooooooooOOOO....                                        ",
"                                    ....XXXXooooooooooooooooooooooooooooooooooooOOOO....                                        ",
"                                        ....XXXXXXXXooooooooooooooooooooooooOOOO....                                            ",
"                                        ....XXXXXXXXooooooooooooooooooooooooOOOO....                                            ",
"                                        ....XXXXXXXXooooooooooooooooooooooooOOOO....                                            ",
"                                        ....XXXXXXXXooooooooooooooooooooooooOOOO....                                            ",
"                                            ........XXXXXXXXXXXXXXXXXXXX........                                                ",
"                                            ........XXXXXXXXXXXXXXXXXXXX........                                                ",
"                                            ........XXXXXXXXXXXXXXXXXXXX........                                                ",
"                                            ........XXXXXXXXXXXXXXXXXXXX........                                                ",
"                                                    ....................                                                        ",
"                                                    ....................                                                        ",
"                                                    ....................                                                        ",
"                                                    ....................                                                        ",
"                                                                                                                                ",
"                                                                                                                                ",
"                                                                                                                                ",
"                                                                                                                                ",
"                                                                                                                                ",
"                                                                                                                                ",
"                                                                                                                                ",
"                                                                                                                                ",
"                                                                                                                                ",
"                                                                                                                                ",
"                                                                                                                                ",
"                                                                                                                                ",
"                                                                                                                                ",
"                                                                                                                                ",
"                                                                                                                                ",
"                                                                                                                                ",
"                                                                                                                                ",
"                                                                                                                                ",
"                                                                                                                                ",
"                                                                                                                                ",
"                                                                                                                                ",
"                                                                                                                                ",
"                                                                                                                                ",
"                                                                                                                                ",
"                                                                                                                                ",
"                                                                                                                                ",
"                                                                                                                                ",
"                                                                                                                                ",
"                                                                                                                                ",
"                                                                                                                                ",
"                                                                                                                                ",
"                                                                                                                                ",
"                                                                                                                                ",
"                                                                                                                                ",
"                                                                                                                                ",
"                                                                                                                                "
};
