/* XPM */
static char *a8c1186e92ec4fb1bf18b33da52f1a42E5rp56kMBdxHX5i6[] = {
/* columns rows colors chars-per-pixel */
"56 56 130 2 ",
"   c None",
".  c #B9AE19",
"X  c #BBB019",
"o  c #BCB119",
"O  c #BDB219",
"+  c #BEB319",
"@  c #C0B519",
"#  c #C3B819",
"$  c #C4B919",
"%  c #C7BB19",
"&  c #C5BA1A",
"*  c #C6BB1A",
"=  c #C7BB1A",
"-  c #C7BC1A",
";  c #CABF1A",
":  c #CBC01A",
">  c #CCC01A",
",  c #CDC21A",
"<  c #CEC31A",
"1  c #CFC31A",
"2  c #D1C51A",
"3  c #D1C61A",
"4  c #D2C61A",
"5  c #D2C71A",
"6  c #D4C81B",
"7  c #D6CB1A",
"8  c #D6CB1B",
"9  c #D7CB1B",
"0  c #DACE1B",
"q  c #DDD11B",
"w  c #DFD31A",
"e  c #DED21B",
"r  c #DFD31B",
"t  c #E7DB17",
"y  c #E1D51B",
"u  c #E3D71B",
"i  c #E1D61C",
"p  c #E3D71C",
"a  c #E4D81C",
"s  c #E5D91C",
"d  c #E6DA1C",
"f  c #E7DB1C",
"g  c #E8DB19",
"h  c #E8DB1A",
"j  c #E8DC1A",
"k  c #E8DC1B",
"l  c #E8DC1C",
"z  c #E9DD1C",
"x  c #E8DC1D",
"c  c #EADD1C",
"v  c #EADE1C",
"b  c #E8DC1E",
"n  c #E8DD1F",
"m  c #E9DD20",
"M  c #E9DD21",
"N  c #E9DD22",
"B  c #E9DD23",
"V  c #E9DE24",
"C  c #E9DE25",
"Z  c #EADE27",
"A  c #EADF28",
"S  c #EADF29",
"D  c #EADF2B",
"F  c #EADF2D",
"G  c #EBE02C",
"H  c #EAE02E",
"J  c #EBE02F",
"K  c #EBE030",
"L  c #EBE031",
"P  c #EBE032",
"I  c #EBE134",
"U  c #ECE136",
"Y  c #ECE137",
"T  c #ECE238",
"R  c #ECE239",
"E  c #ECE23B",
"W  c #ECE23C",
"Q  c #EDE33E",
"!  c #EEE43C",
"~  c #EDE340",
"^  c #EDE442",
"/  c #EDE443",
"(  c #EEE547",
")  c #EEE548",
"_  c #EEE549",
"`  c #EEE54A",
"'  c #EEE54B",
"]  c #EFE64B",
"[  c #EFE64C",
"{  c #EFE64E",
"}  c #F0E753",
"|  c #F0E856",
" . c #F0E858",
".. c #F1E85A",
"X. c #F1E95A",
"o. c #F1E95B",
"O. c #F1E95D",
"+. c #F1E95E",
"@. c #F1EA60",
"#. c #F1EA61",
"$. c #F2EA61",
"%. c #F2EA63",
"&. c #F2EB64",
"*. c #F2EB66",
"=. c #F2EB67",
"-. c #F2EB68",
";. c #F3EB68",
":. c #F3EC69",
">. c #F3EC6B",
",. c #F3ED6F",
"<. c #F4ED6F",
"1. c #F4ED70",
"2. c #F4ED71",
"3. c #F4ED72",
"4. c #F4EE73",
"5. c #F4EE74",
"6. c #F4EE75",
"7. c #F4EE76",
"8. c #F5EE77",
"9. c #F5EF78",
"0. c #F5EF79",
"q. c #F5EF7A",
"w. c #F5EF7B",
"e. c #F5EF7C",
"r. c #F5F07C",
"t. c #F5F07D",
"y. c #F5F07E",
"u. c #F6F07E",
"i. c #F6F07F",
"p. c #F6F080",
/* pixels */
"                                                                                                                ",
"                                                                                                                ",
"                                          l l l l l l l l l l l l l w - O O O O                                 ",
"                                  l     l l l l l l l l l l l l l l p 7 3 3 3 3 %                               ",
"                                l l l l l l l l l l l l l l l l l l l f f f l p > @                             ",
"                            l l l l l l l l l l l l l l l l l l l l l l l l l f w 7 # . X                       ",
"                            l l l l l l l l l l l l l l l l l l l l l l l l l l l p > % % %                     ",
"                      l l l l l l l l l l l l l l l l l l l l l l l l l l l l l l f y w w > O                   ",
"                    l l l l l l l l l l l l l l l l l l l l l l l l l l l l l l l l l l l 0 > #                 ",
"                  l l l l l l l l l l l l l l l l l l l l l l l l l l l l l l l l l l l l f y > O               ",
"                l l l l l l l l l l l l l l l l l l l l l l l l l l l l l l l l l l l l l l f 0 > %             ",
"              l l l l l l l l l l l l l l l l l l l l l l l l l l l l l l l l l l l l l l l l l w % X           ",
"              k l l l l l l l l l l l l l l l l l l l l l l l l l l l l l l l l l l l l l l l l w % .           ",
"              M k l l l l l l l l l l l l l l l l l l l l l l l l l l l l l l l l l l l l l l l y > #           ",
"          p.%.F g l l l l l l l l l l l l l l l l l l l l l l l l l l l l l l l l l l l l l l l f p 7 @         ",
"          u.=.L g l l l l l l l l l l l l l l l l l l l l l l l l l l l l l l l l l l l l l l l l l w > %       ",
"        0.u.=.L g l l l l l l l l l l l l l l l l l l l l l l l l l l l l l l l l l l l l l l l l l f p 3 O     ",
"      0.0.u.=.F t l l l l l l l l l l l l l l l l l l l l l l l l l l l l l l l l l l l l l l l l l l l 3 O     ",
"        0.u.;.Y l l l l l l l l l l l l l l l l l l l l l l l l l l l l l l l l l l l l l l l l l l l f 3 O     ",
"        0.0.7.%./ M k l l l l l l l l l l l l l l l l l l l l l l l l l l l l l l l l l l l l l l l l f 3 O     ",
"      0.0.0.0.u.X.C g l l l l l l l l l l l l l l l l l l l l l l l l l l l l l l l l l l l l l l l l f 7 %     ",
"    0.0.0.0.0.u.X.C g l l l l l l l l l l l l l l l l l l l l l l l l l l l l l l l l l l l l l l l l l f w ; O ",
"    0.0.0.0.0.e.X.M t l l l l l l l l l l l l l l l l l l l l l l l l l l l l l l l l l l l l l l l l l l f > O ",
"    0.0.0.0.0.e.X.C k l l l l l l l l l l l l l l l l l l l l l l l l l l l l l l l l l l l l l l l l l l f : O ",
"    0.0.0.0.0.0.>.[ L l k l l l l l l l l l l l l l l l l l l l l l l l l l l l l l l l l l l l l l l l l f : O ",
"    0.0.0.0.0.0.0.7.) l k l l l l l l l l l l l l l l l l l l l l l l l l l l l l l l l l l l l l l l l l f : O ",
"    0.0.0.0.0.0.u.0.[ l k l l l l l l l l l l l l l l l l l l l l l l l l l l l l l l l l l l l l l l l l f : O ",
"    0.0.0.0.0.0.e.0.) l k l l l l l l l l l l l l l l l l l l l l l l l l l l l l l l l l l l l l l l l l f : O ",
"    0.0.0.0.0.0.e.0.) l k l l l l l l l l l l l l l l l l l l l l l l l l l l l l l l l l l l l l l l l l f : O ",
"    0.0.0.0.0.0.e.0.) l g l l l l l l l l l l l l l l l l l l l l l l l l l l l l l l l l l l l l l l l l f : O ",
"    0.0.0.0.0.0.e.0.[ M k l l l l l l l l l l l l l l l l l l l l l l l l l l l l l l l l l l l l l f l l f : O ",
"    0.0.0.0.0.0.0.0.=.) D k k l l l l l l l l l l l l l l l l l l l l l l l l l l l l l l l l l l l l l l f : O ",
"    0.0.0.0.0.0.0.0.e.,.W k k l l l l l l l l l l l l l l l l l l l l l l l l l l l l l l l l l l l l l l f : O ",
"    0.0.0.0.0.0.0.0.u.3.W k k l l l l l l l l l l l l l l l l l l l l l l l l l l l l l l l l l l l l l l f > O ",
"    0.0.0.0.0.0.0.0.u.3.W g k l l l l l l l l l l l l l l l l l l l l l l l l l l l l l l l l l l l l l f w ; O ",
"      0.0.0.0.0.0.0.u.3.W g k l l l l l l l l l l l l l l l l l l l l l l l l l l l l l l l l l l l l f 7 %     ",
"        0.0.0.0.0.0.e.7.} I M g l l l l l l l l l l l l l l l l l l l l l l l l l l l l l l l l l l l f 3 O     ",
"        0.0.0.0.0.0.0.0.7.%.J k l l l l l l l l l l l l l l l l l l l l l l l l l l l l l l l l l l l f 3 O     ",
"      0.0.0.0.0.0.0.0.0.u.3.| R M k l l l l l l l l l l l l l l l l l l l l l l l l l l l l l l l l l l 3 O     ",
"        0.0.0.0.0.0.0.0.0.0.0.X.C g l l l l l l l l l l l l l l l l l l l l l l l l l l l l l l l l f p 3 O     ",
"          0.0.0.0.0.0.0.0.e.u.X.M t l l l l l l l l l l l l l l l l l l l l l l l l l l l l l l l l w > %       ",
"          0.0.0.0.0.0.0.0.0.0.%.Y M l k l l l l l l l l l l l l l l l l l l l l l l l l l l l l f p 7 @         ",
"              0.0.0.0.0.0.0.0.7.=.~ l k l l l l l l l l l l l l l l l l l l l l l l l l l l l l y > #           ",
"              0.0.0.0.0.0.0.0.u.0.O.R C g g k l l l l l l l l l l l l l l l l l l l l l l l l l w % .           ",
"              0.0.0.0.0.0.0.0.0.0.0.>.R l l l l l l l l l l l l l l l l l l l l l l l l l l l l w % X           ",
"                0.0.0.0.0.0.0.0.0.u.0.O.) ) R l g l l l l l l l l l l l l l l l l l l l l l f 0 > %             ",
"                  0.0.0.0.0.0.0.0.0.0.0.0.0.X.F l l l l l l l l l l l l l l l l l l l l l f y > O               ",
"                    0.0.0.0.0.0.0.0.0.e.u.u.3.X.R k t g g k l l l l l l l l l l l l l l l 0 > #                 ",
"                      0.0.0.0.0.0.0.0.0.0.0.e.0.| L J L L D l k l l l l l l l l l f y w w > O                   ",
"                            0.0.0.0.0.0.0.0.0.0.3.=.=.=.;.[ M g l l l l l l l l l p > % % %                     ",
"                            0.0.0.0.0.0.0.0.0.0.e.u.u.u.u.;./ D k k l l l l l f w 7 # . X                       ",
"                                0.0.0.0.0.0.0.0.0.0.0.0.0.0.3.( M k l f f f l p > @                             ",
"                                  0.    0.0.0.0.0.0.0.0.0.e.e.=.) J y 7 3 3 3 3 %                               ",
"                                          0.0.0.0.0.0.0.0.0.0.e.<.! w % O O O O                                 ",
"                                                                                                                ",
"                                                                                                                "
};
