/* XPM */
static char *_5b75351744b4167fd4558283e3b09a3QOSgycGnKs3VhV43[] = {
/* columns rows colors chars-per-pixel */
"32 32 5 1 ",
"  c None",
". c black",
"X c #897F00",
"o c #D8C800",
"O c #FFF57E",
/* pixels */
"                                ",
"                                ",
"                                ",
"                                ",
"                                ",
"                                ",
"                                ",
"                                ",
"             .....              ",
"           ..OOOOO..            ",
"          .OOoooooOO.           ",
"         .OoooooooooO.          ",
"         .ooooooooooO.          ",
"        .XoooooooooooO.         ",
"        .XoooooooooooO.         ",
"        .XoooooooooooO.         ",
"        .XoooooooooooO.         ",
"        .XoooooooooooO.         ",
"         .XoooooooooO.          ",
"         .XoooooooooO.          ",
"          .XXooooooO.           ",
"           ..XXXXX..            ",
"             .....              ",
"                                ",
"                                ",
"                                ",
"                                ",
"                                ",
"                                ",
"                                ",
"                                ",
"                                "
};
