/* XPM */
static char *_06de6259db8403786fcd3f76574d1814vW17HKxqiAqKDR9[] = {
/* columns rows colors chars-per-pixel */
"56 56 235 2 ",
"   c None",
".  c #181612",
"X  c #2E2E2D",
"o  c #473816",
"O  c #005F1E",
"+  c #005F21",
"@  c #046727",
"#  c #156829",
"$  c #00742D",
"%  c #186A33",
"&  c #057834",
"*  c #31742C",
"=  c #2C6A18",
"-  c #6A521B",
";  c #7D5E19",
":  c #775916",
">  c #537718",
",  c #765C24",
"<  c #695423",
"1  c #5E5E26",
"2  c #316F43",
"3  c #4C7555",
"4  c #69766B",
"5  c #776946",
"6  c #845E16",
"7  c #89641A",
"8  c #88740F",
"9  c #936E21",
"0  c #987724",
"q  c #8E6F2F",
"w  c #A37B2B",
"e  c #877A58",
"r  c #807B70",
"t  c #05833C",
"y  c #09873F",
"u  c #1A8739",
"i  c #2B8F38",
"p  c #798913",
"a  c #528A22",
"s  c #53942E",
"d  c #6AB238",
"f  c #74B936",
"g  c #5DA335",
"h  c #0A8C43",
"j  c #058842",
"k  c #14954B",
"l  c #14984D",
"z  c #2B904F",
"x  c #24A455",
"c  c #2BAA5B",
"v  c #27A758",
"b  c #39B35A",
"n  c #2CB562",
"m  c #35BB64",
"M  c #33B964",
"N  c #39AC60",
"B  c #2E9E5D",
"V  c #48855B",
"C  c #59B445",
"Z  c #42AF51",
"A  c #5D8968",
"S  c #4D9F6E",
"D  c #669573",
"F  c #738A74",
"G  c #69AE62",
"H  c #3AC66D",
"J  c #3CCC72",
"K  c #3CD379",
"L  c #68CE59",
"P  c #73D757",
"I  c #6DCD54",
"U  c #43C667",
"Y  c #58D66A",
"T  c #44D374",
"R  c #4AD675",
"E  c #4BD876",
"W  c #44D77A",
"Q  c #45D87A",
"!  c #48D878",
"~  c #47D877",
"^  c #4ED26E",
"/  c #64D964",
"(  c #76DA75",
")  c #5DC45B",
"_  c #8B8A0C",
"`  c #968A06",
"'  c #878B18",
"]  c #B18F00",
"[  c #AA9503",
"{  c #B29200",
"}  c #BC9B00",
"|  c #B59705",
" . c #96A917",
".. c #BDA200",
"X. c #B5B713",
"o. c #ADAD0F",
"O. c #A58429",
"+. c #AC8634",
"@. c #B28A35",
"#. c #BB9339",
"$. c #BC9A39",
"%. c #95B825",
"&. c #88BD36",
"*. c #91AC22",
"=. c #A1AA25",
"-. c #C5AC01",
";. c #CDAD00",
":. c #C3A500",
">. c #CBB200",
",. c #CFB900",
"<. c #C6B203",
"1. c #D4BD00",
"2. c #D6B700",
"3. c #C69D3D",
"4. c #C9A23E",
"5. c #BBC513",
"6. c #94D13B",
"7. c #B4D827",
"8. c #A5D12E",
"9. c #D6C201",
"0. c #DAC401",
"q. c #DDCA00",
"w. c #D8D70A",
"e. c #C7D818",
"r. c #C1CE12",
"t. c #E1CE00",
"y. c #E5D501",
"u. c #E5D901",
"i. c #E9DA00",
"p. c #E7D703",
"a. c #F1DB00",
"s. c #D4E615",
"d. c #EDE301",
"f. c #E9E805",
"g. c #F2EB00",
"h. c #F1E400",
"j. c #F6F300",
"k. c #FBF400",
"l. c #F9F900",
"z. c #EAF107",
"x. c #99814E",
"c. c #AD9055",
"v. c #A5B947",
"b. c #9C9276",
"n. c #908870",
"m. c #A2987B",
"M. c #AD976D",
"N. c #BCA060",
"B. c #CBA442",
"V. c #CAA445",
"C. c #D4AE47",
"Z. c #D8B54B",
"A. c #D6B150",
"S. c #E3BF51",
"D. c #C1A663",
"F. c #D7B664",
"G. c #C4AD74",
"H. c #E0BF62",
"J. c #C09D48",
"K. c #88DA48",
"L. c #91D942",
"P. c #B9EA63",
"I. c #8BD76A",
"U. c #E6C354",
"Y. c #EBC857",
"T. c #EDCB59",
"R. c #E9C657",
"E. c #F5D45E",
"W. c #F8D75B",
"Q. c #F0CF5B",
"!. c #F7D760",
"~. c #F9D960",
"^. c #F7DA6D",
"/. c #EDD276",
"(. c #C3F462",
"). c #FBE07A",
"_. c #7B7D81",
"`. c #78A987",
"'. c #7FB38D",
"]. c #53DE82",
"[. c #5EE38C",
"{. c #6EE894",
"}. c #7FF0A3",
"|. c #94958D",
" X c #9A978A",
".X c #9B9992",
"XX c #8B9186",
"oX c #90B499",
"OX c #A6A39B",
"+X c #AFA68C",
"@X c #ADABA4",
"#X c #AEAFA9",
"$X c #B4B3AD",
"%X c #BCBAAF",
"&X c #B8B1AF",
"*X c #BABAB2",
"=X c #BBBAB4",
"-X c #A7B1A3",
";X c #C2BEB5",
":X c #C2B393",
">X c #91C49F",
",X c #8FC39E",
"<X c #97F6AD",
"1X c #96FAB6",
"2X c #8AF2A6",
"3X c #D8C390",
"4X c #FBE38A",
"5X c #F5E198",
"6X c #C3C3BC",
"7X c #C9C6B9",
"8X c #D5CEB8",
"9X c #E6D5AB",
"0X c #F2E5B5",
"qX c #F5DC80",
"wX c #BCBDC3",
"eX c #CBCCC4",
"rX c #C9CDC6",
"tX c #CCD2C7",
"yX c #D4D4CC",
"uX c #DCDBD3",
"iX c #D1CEC6",
"pX c #E6DDCD",
"aX c #E4E2DD",
"sX c #F0E9D3",
"dX c #DEDFE3",
"fX c #E5E6E5",
"gX c #E9E9E5",
"hX c #EBECE9",
"jX c #F3F1EE",
"kX c #F7F2E5",
"lX c #F4F4F3",
"zX c #FBFBFC",
"xX c #F7F7F5",
"cX c #F1EFED",
"vX c #DCE2DB",
/* pixels */
"                                                                                                                ",
"                                                                                                                ",
"                                                                                                                ",
"                                                                                                                ",
"                                                                                                                ",
"                                                                                                                ",
"                                                                                                                ",
"                                                                                                                ",
"                                                                                                                ",
"                                                      i.                                                        ",
"                                                    g.g.                                                        ",
"                                                    l.j.                                                        ",
"                                                    l.l.                                                        ",
"                                                    l.l.                                                        ",
"                                                    g.g.                                                        ",
"                        i.i.q.,.>.>.            9.y.i.i.i.y.                      i.i.                          ",
"                      t.i.i.y.t.1.>.;.o.      X.9.i.i.i.i.q.>.        ;.;.1.t.i.i.i.y.                          ",
"                        t.y.i.i.5.*.%.&.U K L X.2.q.y.y.t.1.<.6.K J I &.*.o.y.i.u.y.                            ",
"                        >.q.y.w.f b U E ~ Q Y %.-.>.0.q.,.-.X.I Q Q ! R M C r.y.y.0.                            ",
"                        } ;.X.d Z J W Q ! Q R Y &.| } } | *.I ^ Q ! ! ~ K U C %.,.:.                            ",
"                        =.*.d M J ! ! ! ! ~ ! [.( v.v.v.v.I.{.].~ ! ! ! ! T m C  .                              ",
"                          N M T ! ! ! ! ! ~ ].}.<X<X<X<X<X<X2X[.~ ! ! ! ! ! ~ J                                 ",
"              j.d.p.p.0.X.) K ~ Q ! ! ! ! Q ! ].{.1X1X1X1X}.[.! ! ! ! ! ! Q Q W T &.  y.i.i.j.l.                ",
"              u.d.g.h.i.w.8.L.L./ Q Q ! ! ! Q K ( P.(.(.P.I.~ W ! ! ! Q Q Y K.L.6.e.i.d.g.g.i.u.                ",
"              >.u.j.j.l.j.d.i.u.8.Y E Q ! Q E Y L.u.g.j.d.7./ E ! ! Q E Y K.w.i.i.j.l.j.j.d.1.:.                ",
"              } -.0.i.g.l.l.g.i.w.7./ Q ! Q Y 8.w.j.l.l.j.f.e.P Q Q Q Y 6.w.u.h.j.l.j.d.q.,...{                 ",
"              O.| -.9.u.g.g.d.i.a.w.P Q ! Q / s.k.l.l.l.l.k.f.K.Q Q Q Y 7.a.i.d.g.g.d.q.>.} |                   ",
"                ' ` ..1.y.y.i.i.i.e.P Q ! Q / s.k.j.g.g.j.l.z.K.T ~ W Y 7.y.i.i.i.y.0.:.[ `                     ",
"                * = 8 | ,.y.i.i.q.X.L Q ! Q / e.a.i.0.9.y.h.w.f n T Q ^ 8.1.y.i.y.9.:.` > =                     ",
"                # @ * p { -.2.>.o.d Y ! ! Q / 5.2.>.....-.2.9.d n T ! R C *.<.2.;.} ` > # +                     ",
"              F % @ t i ; _ ` _ s c H T ! Q Y %.| { ] ] ] |  .g n T ~ T n Z ' ` _ 8 > u $ @                     ",
"              XX2 @ t y u u u u z v c m ~ ! T b g [ ] { { p i x n T H c c x u u u u u y $ # F .X                ",
"              |.4 2 & & j j h l x c v c m m m H Z a a a a i l x c m n v c v l k j j t $ % 3 XX.X                ",
"              |.|.A # @ & y k x x x v v v v c H n k h h h l v v v v v v x x x k h t $ @ 3 XX|..X                ",
"              .X@XXX% O @ & h h h k x c c v c c c v v v v v c c c c c v k h h h y $ @ @ A @XOX|.                ",
"              @X$X-XF A 3 % $ t z A D D `.oX>X,X,X>X>X>X>X>X>X>XoX'.`.D D V h $ @ 2 3 D oX$X@X                  ",
"                *X*X*X@X|.V z B `.$X$X=XeXuXaXaXaXaXaXaXaXaXaXaXuXiX;X$X&XoXS z V F OX*X=X*X*X                  ",
"                *X*X*X6XtXrXrXrXvXjXlXlXlXlXxXxXxXxXxXxXxXxXxXxXxXlXlXjXlXfXtXrXrXtXeX=X*X*X                    ",
"                  =XeXyXuXhXjXcXxXzXzXzXzXzXzXzXzXzXzXzXzXzXzXzXzXzXzXzXzXzXjXjXcXaXyXeX6X*X                    ",
"                  6XeXyXuXgXlXzXxXcXgXfXfXfXfXfXfXfXfXfXfXfXfXfXfXfXfXgXhXlXzXxXhXaXyXyXeX                      ",
"                    *X6XyXyXaXlXgXyX;X%X=X*X%X%X%X%X%X%X*X%X%X%X%X=X*X*XeXaXlXgXuXyXyX6X                        ",
"                      $X$X=XeXtX6XOXe b.7X+Xx.c.N.D.D.D.D.N.c.x.M.;X+Xe  X=XrXtX6X$X#X                          ",
"                      e n.b.m.m.n.e < e 7X:Xx., 9 3.C.C.4.w , q M.8Xm.- 5 n.b.m.b.n.e                           ",
"                      : ; ; ; ; : - - x.iXaX$XX o J.Y.Y.A., . n.uXuX+X, - - ; ; ; ; :                           ",
"                      6 7 9 9 7 : : 0 G.gXzXrXX X 8X/.F.9Xr . |.xXlX3X+.7 : 6 9 9 7 6                           ",
"                        w @.@.w 9 9 #.F.9XkXdX_.XX0X/.H.0X@X4 wXxXpX3XB.0 7 w +.@.+.w                           ",
"                        B.B.B.B.#.+.#.3.V.9XjXjX0X^.E.E.~.5XkXlXsXF.3.3.@.@.3.B.B.B.B.                          ",
"                        Y.Y.Y.Y.C.#.#.    /.4X4X).~.W.~.W.^.4X4XqX    @.#.B.U.T.Y.Y.Y.                          ",
"                        ~.~.~.~.Y.Z.        W.W.W.~.~.~.~.W.W.W.        C.U.E.~.~.~.~.                          ",
"                      ~.~.~.~.~.~.E.            ~.~.!.E.E.E.E.          E.~.~.~.~.~.~.!.S.                      ",
"                    ~.~.~.~.~.~.~.~.                                    ~.~.~.~.~.~.~.~.E.E.                    ",
"                    ~.T.U.E.E.U.Y.!.                                  U.E.E.U.T.E.Y.Y.E.T.S.                    ",
"                    !.Z.3.R.R.B.C.E.                                    T.U.3.Z.Q.B.V.E.U.V.                    ",
"                    E.$.0 Z.Z.0 $.E.                                    ~.Z.0 $.U.O.O.Y./.                      ",
"                                                                                    0                           ",
"                                                                                                                "
};
