/* XPM */
static char *b193caaa0e8e46cadfb16fd6a05e24c1GqHW15Vn5XrWWcwO[] = {
/* columns rows colors chars-per-pixel */
"31 56 173 2 ",
"   c None",
".  c #000100",
"X  c #030C01",
"o  c #0B0A0B",
"O  c #041C03",
"+  c #0C130B",
"@  c #0B1C0B",
"#  c #0F0E10",
"$  c #110F11",
"%  c #131313",
"&  c #181618",
"*  c #1B1A1B",
"=  c #052404",
"-  c #0B2E0B",
";  c #0D250C",
":  c #0C360B",
">  c #0B3E09",
",  c #102010",
"<  c #182618",
"1  c #153514",
"2  c #153C14",
"3  c #1C3D1B",
"4  c #201F20",
"5  c #242224",
"6  c #2D2B2D",
"7  c #242D24",
"8  c #343234",
"9  c #303D30",
"0  c gray23",
"q  c #0F430E",
"w  c #0E4B0C",
"e  c #10420F",
"r  c #10570E",
"t  c #115B0F",
"y  c #114810",
"u  c #1A4518",
"i  c #1E4B1D",
"p  c #135E11",
"a  c #185F15",
"s  c #205B1E",
"d  c #11630F",
"f  c #146112",
"g  c #186316",
"h  c #1E6D1B",
"j  c #197317",
"k  c #1D7B19",
"l  c #237D1D",
"z  c #234322",
"x  c #2A4A2A",
"c  c #245223",
"v  c #285E27",
"b  c #295628",
"n  c #2D5C2C",
"m  c #315131",
"M  c #3E503E",
"N  c #395C39",
"B  c #2B6628",
"V  c #30612F",
"C  c #237620",
"Z  c #297F24",
"A  c #3E673D",
"S  c #366434",
"D  c #40633F",
"F  c #464646",
"G  c gray29",
"H  c #525352",
"J  c #4F654E",
"K  c #4A6A49",
"L  c #466246",
"P  c #536E52",
"I  c #5B745B",
"U  c #1E831B",
"Y  c #1F891B",
"T  c #20871C",
"R  c #228C1E",
"E  c #23901F",
"W  c #268321",
"Q  c #298623",
"!  c #238920",
"~  c #2D8B26",
"^  c #2D8429",
"/  c #32852F",
"(  c #32882E",
")  c #259421",
"_  c #2E9027",
"`  c #279922",
"'  c #299B24",
"]  c #349C2E",
"[  c #398C35",
"{  c #389335",
"}  c #369E31",
"|  c #3F9A3B",
" . c #2BA126",
".. c #2EA629",
"X. c #2FA92A",
"o. c #32AC2C",
"O. c #35B12F",
"+. c #36B82F",
"@. c #3FA13B",
"#. c #37B331",
"$. c #39B633",
"%. c #37B931",
"&. c #3CBA36",
"*. c #3EBC38",
"=. c #42903F",
"-. c #42BE3B",
";. c #3EC037",
":. c #3FC339",
">. c #44C23D",
",. c #45C93E",
"<. c #4B9948",
"1. c #5F975D",
"2. c #5D9D5A",
"3. c #46AD41",
"4. c #46BE41",
"5. c #48BF42",
"6. c #4EB849",
"7. c #6A9C68",
"8. c #47C240",
"9. c #4BC444",
"0. c #47CA40",
"q. c #4BCC44",
"w. c #4EC548",
"e. c #4FCA48",
"r. c #52C54D",
"t. c #52CB4C",
"y. c #4ED146",
"u. c #4FD548",
"i. c #54D24C",
"p. c #56C551",
"a. c #5AC655",
"s. c #57CA51",
"d. c #5ACB54",
"f. c #5ECB59",
"g. c #57D350",
"h. c #5BD354",
"j. c #5FD358",
"k. c #62C75E",
"l. c #62CD5D",
"z. c #62D45C",
"x. c #66CE61",
"c. c #6ACD65",
"v. c #6DCF69",
"b. c #71CF6D",
"n. c #66D261",
"m. c #6BD365",
"M. c #6ED369",
"N. c #6FD86A",
"B. c #72D26E",
"V. c #72D36D",
"C. c #70D86B",
"Z. c #74CF71",
"A. c #76D371",
"S. c #76D371",
"D. c #79D375",
"F. c #7AD576",
"G. c #7AD476",
"H. c #7AD876",
"J. c #7ED57A",
"K. c #7ED37A",
"L. c #7DD979",
"P. c #81D47E",
"I. c #81D97D",
"U. c #84D781",
"Y. c #85D582",
"T. c #89D686",
"R. c #86D982",
"E. c #8AD986",
"W. c #8DD68B",
"Q. c #8DD98A",
"!. c #91D68F",
"~. c #90DA8D",
"^. c #94DA91",
/* pixels */
"  % % % % % & 5 6 8 8 8 6 6 5 * & % % $ o o o o o o o o o o   ",
"o o % & < 7 9 M J I I I P L N m x z z 3 3 1 < , @ + o o o o . ",
"X s / { @.3.6.p.k.c.c.c.k.a.r.9.4.-.&.#.o...' ! k g y : - @ . ",
"X ] y.y.i.i.g.z.m.V.V.V.m.l.s.r.9.>.*.&.#.o...` R k f y e - . ",
"X ] q.q.t.i.g.z.m.V.A.V.M.l.d.r.9.>.-.&.#.o...` R k p y e - . ",
"X ] q.q.i.i.h.z.N.S.G.A.M.x.d.r.9.>.-.&.#.o...` R k p y e - . ",
"X ] q.q.i.i.h.z.N.G.G.D.V.x.f.t.9.8.-.&.$.o...` R k a y e - . ",
"X ] q.q.i.i.h.n.V.L.J.J.B.c.f.t.9.8.-.&.$.o...` R k f y e - . ",
"X } y.y.i.i.h.n.C.L.I.J.A.m.f.t.9.8.-.&.$.o...' R k f y e - . ",
"X } y.y.i.h.h.m.S.I.U.I.D.M.l.s.w.8.-.&.$.o...' R k f y e - . ",
"X } y.i.i.h.z.m.H.R.R.U.G.M.l.s.w.8.>.&.$.O...' R k f y e - . ",
"X } y.i.i.h.z.N.H.R.E.R.J.V.l.s.e.8.>.&.$.O...' R k f y e - . ",
"X } y.i.i.h.z.N.L.E.Q.T.J.V.l.d.t.8.>.*.$.O...' R k f y e - . ",
"X } y.i.i.h.z.N.L.Q.~.Q.I.V.x.d.t.8.>.*.$.O.X.' R k f y e - . ",
"X } y.i.i.h.z.N.I.Q.~.Q.U.A.x.d.t.8.>.*.&.O.X.' R k f y e - . ",
"X } y.i.i.h.z.C.I.~.^.~.U.A.n.d.t.8.>.*.&.O.X.' R k f y e - . ",
"X } y.i.i.h.z.N.I.Q.^.!.U.A.x.d.t.8.>.*.$.O...' R k p e q - . ",
"+ i v v V V S A K P P P K D N n b c c i i u 2 2 1 - ; @ @ + o ",
"% % % & * 5 6 0 G H H H F 0 8 5 4 & % % % # o o o o o o o o o ",
"        o + B | <.<.2.7.7.1.<.=.[ ( ^ Z C h a q O . .         ",
"        . X _ u.i.z.H.~.^.U.M.d.e.,.;.%.X. .Y d = . .         ",
"        . X ~ y.i.z.G.W.!.Y.v.d.9.>.*.#.X.' Y f = . .         ",
"        . X ~ u.i.z.G.W.!.Y.v.d.9.>.*.$.o.' Y f = . .         ",
"        . X ~ u.i.z.G.W.!.Y.v.d.9.>.*.$.o.' R f = . .         ",
"        . X ~ y.i.z.G.W.!.P.v.d.9.>.&.#.o.' R f = . .         ",
"        . X ~ y.i.z.G.W.W.P.v.d.9.>.*.#.o.' R f = . .         ",
"        . X ~ y.i.z.G.W.W.P.c.d.9.>.&.#.o.' R f = . .         ",
"        . X ~ y.i.z.S.T.W.K.c.d.9.>.&.#.o.' T f = . .         ",
"        . X ~ y.i.z.A.T.T.K.c.s.9.>.&.$.o.' T f = . .         ",
"        . X ~ y.t.z.A.U.T.K.c.s.9.>.&.#.o.' T f = . .         ",
"        . X ~ y.i.z.V.U.R.D.c.s.9.>.&.#.o.' T f = . .         ",
"        . X ~ y.i.z.V.I.Y.D.x.s.9.>.&.$.o.' T f = . .         ",
"        . X ~ y.i.j.V.I.P.A.x.s.9.-.&.#.o.` T f = . .         ",
"        . X ~ y.t.h.M.K.K.Z.l.p.9.-.&.#.o.` U f = . .         ",
"        . X ~ q.t.h.M.D.K.b.l.t.8.-.&.#.X.` U f = . .         ",
"        . X ~ q.t.h.m.D.D.b.l.r.9.-.&.#.X.` U f = . .         ",
"        . X ~ q.t.h.m.A.A.v.l.r.9.-.&.O...` U p = . .         ",
"        . X ~ q.t.d.n.V.V.c.f.r.9.-.&.O...` U p = . .         ",
"        . X ~ q.t.d.n.V.b.c.f.r.9.-.&.O...` U p = . .         ",
"        . X ~ q.e.d.z.v.v.x.d.r.8.-.$.O...` U p = . .         ",
"        . X ~ q.q.s.z.c.c.x.d.w.8.*.$.O...` U p = . .         ",
"        . X ~ q.q.t.l.n.c.l.s.w.>.*.$.o...) U p = . .         ",
"        . X Q q.e.t.f.x.x.l.p.9.>.*.$.o...) U p = . .         ",
"        . X Q 0.e.t.f.l.l.f.r.9.-.*.$.o...) U p = . .         ",
"        . X Q ,.q.t.d.l.l.a.r.9.-.&.$.o. .) U p = . .         ",
"        . X Q ,.q.t.d.f.f.d.r.9.-.&.$.o. .) U t = . .         ",
"        . X Q ,.q.t.s.a.a.p.r.9.-.&.#.o. .) U t = . .         ",
"        . X Q ,.q.e.t.d.d.p.w.9.-.&.#.o. .) k t = . .         ",
"        . X W ,.8.e.t.s.s.r.w.8.-.$.#.o. .) k t = . .         ",
"        . X W ,.8.e.r.s.p.r.9.4.-.$.#.o. .) k t = . .         ",
"        . X W ,.,.9.t.t.r.r.9.-.*.$.o.o.' ) k t = . .         ",
"        . X W ,.,.8.w.r.r.w.9.-.*.$.o.o.' ) k t = . .         ",
"        . X W :.,.8.9.r.r.w.5.-.&.$.o.o.' E k r = . .         ",
"        . X l *.>.>.8.9.9.9.-.-.$.#.o...` R j w O . .         ",
"        . X l $.*.-.>.>.-.-.*.$.#.o... .) U g > O . .         ",
"        . X k +.$.&.*.*.&.&.$.#.o... .` R k p : O . .         "
};
