/* XPM */
static char *_e48376864b1444ac25748afef5a39ecInVMd3VQzbnBNSut[] = {
/* columns rows colors chars-per-pixel */
"64 64 234 2 ",
"   c black",
".  c #04070D",
"X  c #040415",
"o  c #050911",
"O  c #0A0D15",
"+  c #0C0C1A",
"@  c #0E111A",
"#  c #0C1016",
"$  c #12141C",
"%  c #15151B",
"&  c #151622",
"*  c #1D1D26",
"=  c #1E1E2B",
"-  c #161828",
";  c #07183B",
":  c #1D1D33",
">  c #1E1F39",
",  c #121D3B",
"<  c #061330",
"1  c #18233A",
"2  c #0E2738",
"3  c #21212F",
"4  c #23233C",
"5  c #2B2B3C",
"6  c #252738",
"7  c #33313A",
"8  c #26241E",
"9  c #3F4034",
"0  c #0C1D43",
"q  c #0C1C4B",
"w  c #071842",
"e  c #121C4C",
"r  c #121C45",
"t  c #0E1D51",
"y  c #141E52",
"u  c #0C234C",
"i  c #0C2243",
"p  c #1C2543",
"a  c #13234D",
"s  c #1C2C4A",
"d  c #182746",
"f  c #1E314A",
"g  c #132453",
"h  c #192454",
"j  c #132A54",
"k  c #152659",
"l  c #1B265B",
"z  c #172B5A",
"x  c #1B2C5C",
"c  c #1A2953",
"v  c #182D5A",
"b  c #232443",
"n  c #242C44",
"m  c #2C2E43",
"M  c #242D4A",
"N  c #2A2C4A",
"B  c #24314C",
"V  c #2D324B",
"C  c #273146",
"Z  c #32364C",
"A  c #35374A",
"S  c #242D55",
"D  c #253352",
"F  c #2B3452",
"G  c #2C3954",
"H  c #2D3A5A",
"J  c #27355C",
"K  c #313552",
"L  c #353A53",
"P  c #3A3C53",
"I  c #343D5B",
"U  c #3A3E59",
"Y  c #353558",
"T  c #1D2F62",
"R  c #1E3164",
"E  c #222E63",
"W  c #243364",
"Q  c #2B3969",
"!  c #363C69",
"~  c #563F58",
"^  c #36415D",
"/  c #3C435D",
"(  c #3D4458",
")  c #3B4463",
"_  c #3D4864",
"`  c #374564",
"'  c #344272",
"]  c #424353",
"[  c #4A4A55",
"{  c #44455A",
"}  c #4C4C5B",
"|  c #45485B",
" . c #51515E",
".. c #5F5559",
"X. c #5E4D58",
"o. c #67585D",
"O. c #434B64",
"+. c #464B67",
"@. c #4A516B",
"#. c #535363",
"$. c #585869",
"%. c #545978",
"&. c #474C76",
"*. c #6B5A65",
"=. c #6E5A67",
"-. c #6F6165",
";. c #766969",
":. c #7B7074",
">. c #677554",
",. c #768266",
"<. c #7F8B74",
"1. c #91997A",
"2. c #575C85",
"3. c #5C6387",
"4. c #656889",
"5. c #646990",
"6. c #717492",
"7. c #6F75B1",
"8. c #7979C8",
"9. c #7D7DD2",
"0. c #8A7A94",
"q. c #7D86B3",
"w. c #7B84CB",
"e. c #7D87D2",
"r. c #8588A9",
"t. c #9595AC",
"y. c #888BBB",
"u. c #9292BD",
"i. c #9A9AB7",
"p. c #8F90B5",
"a. c #A69AA2",
"s. c #A4A4BC",
"d. c #ACACBE",
"f. c #A2A2B6",
"g. c #B3B3BE",
"h. c #9A9591",
"j. c #8B8BC4",
"k. c #8588C8",
"l. c #8D94C6",
"z. c #9393C4",
"x. c #9A9AC4",
"c. c #9494CB",
"v. c #999ACB",
"b. c #969AC6",
"n. c #828BD4",
"m. c #848AD9",
"M. c #8690DD",
"N. c #8B93DB",
"B. c #8A91D5",
"V. c #9A9AD3",
"C. c #929ADB",
"Z. c #9597D5",
"A. c #9CA3CC",
"S. c #9CA3DB",
"D. c #9BA2D3",
"F. c #A5A5C4",
"G. c #ACACC3",
"H. c #A4A5CB",
"J. c #ACACCB",
"K. c #A6ABCD",
"L. c #B5B5C4",
"P. c #BBBBC6",
"I. c #B3B4CC",
"U. c #BDBDCA",
"Y. c #A2A7D4",
"T. c #A5ABD4",
"R. c #ABAED4",
"E. c #A2A6DB",
"W. c #A5ABDB",
"Q. c #AAAFDA",
"!. c #AEB2D3",
"~. c #ADB2DC",
"^. c #B3B5D4",
"/. c #B6BAD5",
"(. c #B2B6DB",
"). c #B5BADB",
"_. c #BABDDB",
"`. c #BBBDD5",
"'. c #AFB2CC",
"]. c #888DE4",
"[. c #8B93E3",
"{. c #8C94E9",
"}. c #8C96E6",
"|. c #939BE3",
" X c #949BE7",
".X c #979EF5",
"XX c #9BA2E5",
"oX c #96A1F9",
"OX c #A1A6E2",
"+X c #A5ACE3",
"@X c #AAAEE2",
"#X c #A5ADEB",
"$X c #A7ABEA",
"%X c #ADB3E3",
"&X c #ADB3EB",
"*X c #A7B1E9",
"=X c #B2B6E2",
"-X c #B5BAE3",
";X c #BABDE3",
":X c #B2B5EA",
">X c #B5BBEA",
",X c #BABEEA",
"<X c #A4ACF3",
"1X c #AEB4FF",
"2X c #AEB5F4",
"3X c #B5BCF3",
"4X c #B5BBFF",
"5X c #BABEFF",
"6X c #B3B8F8",
"7X c #BEC1DC",
"8X c #BEC2E3",
"9X c #BDC2EB",
"0X c #BEC3FF",
"qX c #BCC2F2",
"wX c #C2C2CD",
"eX c #C4C5D6",
"rX c #C2C5E4",
"tX c #C1C6EA",
"yX c #C5C9EC",
"uX c #C8CBE6",
"iX c #C1C6FF",
"pX c #C5CAFF",
"aX c #C9CEFF",
"sX c #C3C8F3",
"dX c #C6D1FF",
"fX c #CCD3FF",
"gX c #CED8FF",
"hX c #D1D6FF",
"jX c #D3DBFF",
"kX c #D8DEFF",
"lX c #D6E0FF",
"zX c #DAE3FF",
"xX c #DEE8FF",
"cX c #E1EAFF",
/* pixels */
"n L L 1 1 o - &.! ! ! S N 4 4 b 4 > 4 b = N b > b > 4 4 : > N 4 4 - b : > b 4 4 > b > 4 b > - > b 4 b 4 b &.&.! >   M K 1 n b , ",
"^ / ) +.V # > 9.8.7.$ $ $ * & & & & $ $ $ $ O $ $ & & $ @ & $ & & O & % $ $ & & $ $ $ @ & $ $ $ # * @ .   K 8.7.K   M O.&._ M p ",
") @.M B B # - 9.8.iXe.e.e.e.m.n.m.n.n.m.n.e.n.M.m.n.].M.n.n.n.m.M.n.w.e.M.k.n.w.].e.].M.{.].M.[.e.n.m.w.) = m.8.Y   U U B F G M ",
"L +.C n I O 4 8.9.cXM.].{.[.].M.{.{.M.[.n.M.}.[.[.{.N.M.[.k.N.{..X}.{.[.].{.N.[.{.}.n.n.].[.{.}.m.{.{.n.7.& 9.9.U   ` H I s D N ",
"L +.) ^ ` o : 8.8.zX{.{.{.].M.}.M.[.{.{.N.|. X|. X|. X X|.|..XC.|.C.C..X|.N.}.}.C.C.|.N.}.}.B.N.B.{.{.oX7.% 8.9.Z   D F +.J H < ",
"@.^ G +.F O : 8.8.cX].].{.N.B.B.|. XB.[. X|.|.|.C.XXC.XX XC.|.XX|.XXC.|. Xl.XX XB.|. XC.c.C.oXM.N.[.N.B.7.6 k.k.6   Q D B I H s ",
"$./ M F &.O : 8.9.jXkXdXaXdXdXdXdXfXdXdXfXaXdXdXdXdXdXfXdXfXdXfXdXaXdXpXdXdXdXfXdXaXdXfXfXdXdXdXfXdXaXdX1X7.j.y.P   Q I Q r B c ",
"p B G I L o : 8.k.N.1X4X1X4X5X5X0X0X0X0X0XiXiXiX0X0XiXpXiXiXpX0XpXiXpXpXpX0X0XiX0XiX0XiX0X0X5X0X0X0X0X4XV.z.j.j.{   J S 0 i , r ",
"s d F d _ O = k.k.j.j.j.y.z.Z.x.x.v.x.i.F.H.H.H.F.K.J.K.K.s.s.J.R.R.R.s.s.s.G.G.s.F.H.H.F.F.i.i.x.V.V.V.x.c.V.c.]   ! Q c J J a ",
"^ _ @.^ M O = k.k.y.4.{ ] | | { ] } } } [ ] } $.} #.[  .$.#.} ]  .$.| $. .#.} ] } }  .} | } } } } | | | +.r.x.v.A   r s J z ! B ",
"F O.n ^ V . = B.j.y.5 Z n m Z ( / A L L | P A L L L L V Z U ] K V L L Z A Z V A m V n Z M n Z A V P Z 1 . 7 V.v.Z   j J a J e e ",
"I O.@.M I O = j.j.fX|.C.D.E.OX+XE.R.+X%X!.Q./.-X&X,X%X#X=X=X_.W.(.T.R.%X(.(.=XE.%X&XQ.@XD.Y.W.E.E.E.OXE.3.+ H.A.Z   W J g Q ' h ",
"/ L d I D o * j.c.zXXXS.OXE.Y.Q.@X&XOXR.Q.3X-X-XI.=XT.R.>X:X%X(.=X~.(.R.~.;X>XR.-X&X%X).E.T.Q.#X%X&X$X$Xj.X p.H.m   l ; i x W h ",
"V +.^ ^ d O = j.l.zXS.C.S.OXT.W.Q.R.@X3X>X(.>X%X).>X+X-X,XtXW.(.9X=X9X(.-X;X>X~.-X~.=X%X%X<XV.W.+X+XE.W.y.X i.H.m   W w x z x h ",
"I ^ / L H O = j.z.zXS.#X+XD.D.+X&X%X).=X/.E.W.>X%XqX>X>XY.;X,X8XI.).=XtXR.Y.,X<X9X3X9XR.Q.=X@X&X@X@XS.E.q.$ H.F.5   l u x e 0 e ",
"M ) G s U O = Z.c.zXXXS.S.<X&XW.T.>X~.Y.=X&X%X9X-X_.T.^.'.I.8X9X%X-X^.!.W.;X_.E.;X).%X).=X>X3X+X%X%X&X+Xk.X H.K.5   z j h a x ; ",
"M I p I D o * j.Z.zXOXOXA.&X%X%X~.~.~.D.~./.W.;X%X9X9X~.>X8XJ.;X^.(.+X$X!.'.).;X!.9X-X!.=X_.(.<X%X>X~.%Xy.X s.G.m   w g Q k z g ",
"I I C s d . = z.Z.zX#X<XS.W.~.3X>X%XW.&X9X&X=XQ.;X8X).9X9X_.=X_.~.T.).yXY.tX8X3X>X~.T.~.8X;X).;X>X&XW.~.u.X f.G.6   Q x e l h ; ",
"I B s H ` O = Z.Z.zXv.C.W.&XQ.R.&X+X9X-X-X-X).8X-X8X!.;X_.;X7X~.yXtX8X).Q.8XrXK.9XW.%X,X).-X=X-X!.:X%X+Xl.X t.J.m   l Q g h ; ; ",
"F ^ B H ` @ 3 z.z.zXOXE.&XW.=X%XR.).,X9X3X;X).).-X8X(.R.;XtX9XrX_._.tXyX9XtX;XrX(.>X=X,X%X+X-X-X,X:X%X%Xc.O s.J.5   h y E g z h ",
"D I ` ^ %.$ * y.z.zX#XE.Q.%X&X(.%X=X^.tXW.9X>X8X).8X_.;XrXrXtXtX8XrXqXQ.R.8X^.Y.-X9X9X^.~.~.).R.-X~.~.~.y.+ s.R.6   k g ; g y r ",
"p N D H s o * z.v.cX#XE.W.S.E.R.%X%X@X%X(.tX/._.;X8X;XtXrX;X_._.8X;X;X,X_.,X9X8X_._.9X~.%X~.~.~.%X>X#XW.7.5 G.R.m   t w j l q g ",
"_ 1 H _ @.O : z.c.kXlXfXgXdXjXdXfXfXdXgXjXhXgXjXgXjXkXkXzXzXjXzXkXlXzXjXzXkXkXkXjXjXjXfXdXjXfXgXfXfXfXfX4Xf.J.J.]   k a k w h y ",
"@.s I p d $ = z.u.E.0XiXpXpXpXiXdXfXaXfXjXhXjXjXaXdXfXdX0XhXaXfXfXjXiX5XiXfXfXdXfXfX0XhXaXaXhXhXaXdXdXaX).G.G.J.}   W W z j 0 < ",
"U _ ^ s D O * z.c.v.i.F.s.J.G.i.L.U.U.U.L.L.d.P.L.d.d.L.d.wXU.s.L.U.wXL.G.U.eXI.P.wXU.eXwXwX`.U.g.P.L.I.I.'.G.F. .  x y g i x a ",
"( F _ D s O 4 z.z.v.4.#.} }  .}  .$.#. . . . . .}  .#.{ ] P P $.#.P } $.} P { #.$.} #. .} }  . .} [  . .%.t.J.G.A   E k Q g k l ",
"G / d ! I # * Z.z.u.6 ( V } V 1 m V Z V Z U L P L n m b n Z Z N L N n L L Z P F V Z L P F V A { M n 1 5 . 7 G.F.m   q z Q Q y e ",
"` F D d +.o = z.z.jXOXE.E.W.~.~.&X>XH.Y.-X).7X=X).).rXsX9X-X,X!.uX,XR.).^.eX_.!.~.T.~.~.&XW.~.=X1X4X1X1X%.+ s.F.Z   ; g z u g 0 ",
"I I / %.D @ = z.c.zXE.+XW.S.%X%X>X!.-XT.(.~.8X9XtX/.-X;X-X8X-X!.tXR.;XrX%X8X*X#X_.&XS.#X2X3X2XH.& 6 *  X8.X t.F.m   a a T x g ; ",
"G ^ , ^ +.O * z.c.zXOXOXT.+XE.@X&XK.;X-X;X/.3X7X=X9X8X(./.9X8X,X_.-XH.(.A.9X>X;Xy.1XjXkXlXzXzXlXlXzX&.N.w.X H.H.6   j w W Q W 0 ",
"G f s G s o = z.z.zXE.OXE.@XT.W.=X%X).).9X=XQ.;X,X8X7X9X;X,X-X(.).-XQ.;XW._.tX(.W.2.7.M.oX1X1X5X0XiX7.B.n.O F.H.5   ; x W e x g ",
"O.^ B H I o = u.c.xXE.S.<XQ.=X%X-X=X;X-XtX>X,XrX:X8X_.8X>XeX8X+X-XrX`.tX,X:X-XtX,X8Xr.r.@.O.P K $ U . B.n.$ F.F.m   x q u z x < ",
"H H D s H @ * y.u.zXOXW.+X+XD.W.>X%X-X,X8XsX-XW.~.9X)._.).F.tX,X7XyX~.;X).8X-X;X&X9X).-XT.&X&XE.      [.B.X s.H.m   T W ; W ' k ",
"L B d H ` @ * z.v.zXY.OX+X&X2X~.).=X(.S.(.).^.3X>XyX>X8X=X;X;XJ.).,X;XR.~.)._.R.*X;X=X-X-XOX%XS.      ].k.@ s.F.m   z Q g z k w ",
"/ _ O.U ) $ = z.V.zXS.S.+XXX%X-X;X(.>X2X=X~.!.8X;X,XrXrXuX_.~.(.=XrX;XsXrX,X~.W.>X-X@X-X=X~.(.l.      m.n.+ H.H.A   J g g g z a ",
"G M G D D o = z.z.zXE.OXT.%XR.@X(.&X>X~.9X-X-X~.rX).).^.tX-XrX~.D.%X;X7X8X;XR.-X=X(.&XR.Q.T.+Xy.      m.w.X s.s.5   E u j i a h ",
"1 p D D I o * z.v.zX+XW.2X%X%X%X,XH.T.>X@X-X;XrX).9X0X%XtX-X7X).tXA.^.>X;X(.A.,XQ.).,X).OX>X&XD.      ].n.+ f.F.>   x W T g W , ",
"/ H U U d $ = c.z.xX|.OXE.H.%X(.>X9X>X;X=X7X~.eX_.^.^.).8XtX&X~.).>XrX=XtX>X!.8X~.W.).(.;X%X%X=X6.2.2.C.k.5 F.s.m   w ; a i g 0 ",
"O.G d H I $ * u.z.kXzXjXdXgXfXgXjXfXgXjXlXjXjXzXgXlXjXjXjXzXzXzXzXkXkXkXkXjXkXjXjXjXjXjXkXfXdXfXfXgXfXgX4Xt.H.F.m   g W T g h r ",
"O.G ` d s O = z.v.OX5XpXpXpXaXaXpXfXfXdXhXjXpXpXfXdXhXhXaXfXhXhXdXpXaXpXfXjXiXfXfXdXhXfXfXfXaXaXaXaXpXpX(.F.H.E.}   k e x W u 0 ",
"O.K G H D O = z.Z.v.H.H.R.d.L.I.g.U.g.d.U.g.wXeXU.U.s.L.U.I.L.U.s.L.eXL.I.d.L.wXeXg.wXwXP.U.L.d.I.I.G.J.J.f.F.H.}   W 0 J T ! 0 ",
"G G G I B @ = z.V.x.4.#.}  .}  . .$.} [ [ } | $.} } } { | P P | } $.| { #.#. .} #.} } #. .} $.$. .] [ #.#.t.J.H.]   g u x u c i ",
"H d ^ ) F . = Z.v.z.Z | P V P L Z ( m ( n 4 n b p L / I N / F N m P L V A F 1 V P n V { m V M F V K M 4 o 7 G.F.m   g d h u z ; ",
"_ s M d D O * z.c.kXXXE.@X2X%X:XA.~.=X2XW.).-X).,XeX,X~.W.^.!.~.;X9X>X-X!.%XtXtX).9X(.(.~.).#XY.T.%X%XT.4.+ s.F.m   q R i c Q 0 ",
"G B , O.s O * u.v.xXXX&XW.~.~.W.@XQ.K.=X/.).rX(.;X,XrXsX;XrX%X=X=X;X-X8X-X~._.8X-X_.9X;X=X-X+X@XW.OXE.%Xq.X f.F.m   l T a l j w ",
"V M &.F Y O = z.v.zXOXW.Q.@X+X:X>X:X=X;X;XtX9XrX`.:XQ.&X9X_.:XtX9XH.:X,X(.%X(.8XrX;X,X-X).>XE.-X;X~.%X#X7.X f.G.m   l g x ! Q S ",
"f 2 p F H o = z.z.xX+XW.&X%X=X=X).v.A.%X3X(.7X;X8XrX9XtX;X;X^.,XQ.>X&X(.>XsX%XtX;X=XI._.,X9X3X>XD.@X+XW.q.X F.R.m   g x ; q u e ",
"/ +./ 2 d $ = u.v.xXW.+X@XT.!.%X&X%X%X9X-X;X8X~.,X~.-XK.;X).9X~.Q._.;XD.9X;XrX).;X>X;X_.;X;X).-XT.Q.=X%Xy.X f.G.Z   z g a g j h ",
"M s H _ s O * c.x.cX<XS.S.%X%XQ.!.;X!.`.+XtXyX-XJ.-X_.,X-X^.;X9XyX,XK.-XuX8XrX;X,X:X).8X(._.~.=X%X-X=X&Xx.X F.G.4   x Q x u j e ",
"` ^ D s s o = z.v.zX|.2X&X:X=X+X>X=X-X^.-X-X`.W.(.~.~.tX,XrXJ.R.rX~.~.8XtX/.rXrX)._.;X~.;X=X=X+XE.,X>X%Xr.X s.J.m   g t i g z ; ",
"_ s B s f o 3 z.u.zXE.*X&XQ.@X+XQ.;X9X~._.9XsXtXuX8XyX).8XrXtX/.rX8X/.8X;X9XuX8X).-X_.(.;X_.(.(.+XQ.-X3Xl.X f.G.Z   T u u g ' q ",
"O.^ U D H @ = z.x.zXW.OX@X>X@X>X;X+X>X8X8XJ.!.eX=X,X9X_.;X7X7X(.uX(.W.%X^.`.yX,X!.J.tX(._.;X~./.=X>X&X>Xq.X d.G.4   u j R h y w ",
"B p d d d . 3 Z.v.xX+XXX+X%X=X:X=X,X~.;X;X-X=XrX>XT._.).uX7XuXyXT.tXtX)./.7X_.=X~.tX8X~.-X~.>X-XT.~.:X=Xk.X f.d.m   k u g e E q ",
"/ G F s s O 3 c.V.cX<XOX$XXXF.~.-XT._.9X8XT.T.8X>X).qX8X).uXyX9XuX_.rXyX;X,XyXtX=X_.8X>XQ.W.7X_.,XQ.Q.-Xr.5 I.G.4   T T g x y ; ",
"F 2 U ) I O 4 z.z.lXkXdXdXdXjXjXgXjXkXjXkXjXjXdXjXjXzXzXjXfXjXjXxXxXkXkXzXjXzXkXkXjXjXkXjXfXjXjXjXgXdXjX4Xt.^.J.P   t w T z g 0 ",
"M I d s H O : y.u.E.5XiXpXpXaXfXfXfXdXhXfXhXpXjXjXfXaXhXhXfXiXjXhXaXhXjX0XhXfXaXfXaXhXhXaXfXhXfXhXaXfXaX;X^.G.G.[   k t g x g ; ",
"^ _ p H s O : u.z.v.x.H.K.J.d.^.L.P.U.U.g.wXU.wXG.wXd.eXs.L.i.d.f.s.eXf.L.d.U.L.L.d.wXwXU.U.L.wXP.P.P.I.I.I.G.J.}   W g w x g W ",
"n _ G D +.$ 3 c.u.u.4.#.#. .$.[ }  . .$.] ] [  .$.} | $.] ] #.P } { $.{ } { ]  .U $.} [ #.]  .}  .$.}  .%.r.d.J.]   l l W < q r ",
"G f , M F O = c.u.z.5 V ] U ] P A P U Z V / M L V U V Z n Z V n L L M V > p m P V , M I p Z V Z V L C 5 . 6 '.G.>   g g y T l w ",
"s / F @.Y @ 3 z.z.jXE.+XW.&X=X@XQ.%XR.-X9X;X~.*XXXrXtX(.T.-X>XW.;X,X7X_.;X,X-X=XqXy.W.>XE.~.W.W.@XT.Q.~.3.+ G.J.4   a u w u W q ",
"^ / ^ H 2 o = y.z.xX<XW.E.*X:X=XT.).>X>X9X9XqX8X8XrX-XT.(._._.D.,X_.!.8XT.8X(.;X~.%X).,X,X3X&XW.%XS.(.=Xz.+ d.G.5   u k w l g g ",
"^ ^ Y D H O 1 c.c.zXD.+X%XOXW.=X&X>X).-X(.>X(.8X%X~.qX9X=XW.>X%X;X8XtXtXS.T.sXY.-XW.K.%X-XR.T.R.~.Y.%X*X5.* G.J.}   l E Q g T q ",
"F F D ` H O 4 z.u.2X7.5.5.4.4.2.5.6.6.4.3.6.3.2.2.6.%.4.3.5.2.2.4.4.6.4.3.%.5.5.4.6.%.4.5.3.3.2.3.%.%.%.- ] G.R. .  a W x 0 W ; ",
",.<.h.1.1.9 7 0.r.t.0.;.*.-.-.o.;.;.;.-.;.;.=.-.*.:.o.-.*.*.-.X.*.X.=.;.*.~ -.o.-.;.o.X.;.=.;.:.=.-.:.:.:.h.a.a...8 ,.,.>.>.,.,."
};
