/* XPM */
static char *aabbb30ab08940b9b5b5015b938cbab6bZhVoc73UN55hPjs[] = {
/* columns rows colors chars-per-pixel */
"56 56 21 1 ",
"  c #5A3D0F",
". c #573B11",
"X c #5C3E12",
"o c #5E4012",
"O c #604013",
"+ c #604113",
"@ c #644213",
"# c #674213",
"$ c #634412",
"% c #664413",
"& c #604214",
"* c #654314",
"= c #634514",
"- c #664415",
"; c #684413",
": c #684714",
"> c #674812",
", c #644814",
"< c #674814",
"1 c #684812",
"2 c #684814",
/* pixels */
"&&&+++++&&oo+oXXXXXXXXX+++%%%%%==oXooooooooXo+oXXXXXXoo&",
"&++ooo++&-&&&+oXXXXXXXXo+$$%%--$&ooooXoXXXooXooXXXXXXX++",
"&++oooo+%@@*&++XXooooXXX+$$$1%%++oooXXXXXXXXXXXXXXXXXo++",
"+++XXoo+%@+**&+++++ooo++$%%%%%%%+oXXXXXXXXXXXXXXXXXXXooo",
"o+X++++++++@-*&@+++++o++$%%%%%%$+oooXooXXXXXXXXXXXXXXoXX",
"XoXXo+++++@*---@++++++++$%%%>%%+++ooo$$oXXoXXXXXXXXXXoXX",
"XXXoo+o+++@**--@@++ooo+++$$%%%%%++++++$+ooooXXXXXXXXXXXX",
"XXXXXXX++++&*--@@+ooooo+$%$%$$%$++$$$+$++ooooXXXXXXXXXXX",
"XXXXXXX++@@*%%@@%++o+oo+$$%%++$%$+$%$$$+++XooXXX...XXXXX",
"XXXXXX+++@*-;;@@@++o+++++$$$$++%++%%%$++$$ooXoXXX...XXXX",
"XXXXX+++++@*@@@@@@++++++++$++++$+$%%%%%$%%++ooXXXXX.XXXX",
"XXXXXX++++++@@@@@@@@++++++++$$+%%%%%>>%%%$+++ooXXXXXXXXX",
"XXXXXX+o+@@@@@@@@@@+++++++++$$++%%%%>>%%%%++++oXXXXXXXXX",
"XXoXX&+++@@@@+@@@@+++++Xo+oo+++oo+$$%%%%%%%++++XXXXXXXXX",
"XXoXo&&&+@@@@+@++++++++oo++o++ooo+$$>>%%>%%$$++XXXXXXXXX",
"XooX&&&&+@@@++++++++++++o++oo+o+oo+$%%%$$$$$$+++oooXXooo",
"oooo+++@@@@+++++++++++++oXXXooo+o++$%%$$$$$+++++oooooooo",
"ooXX+++-@@@+++++++++++++oXXooo+o+++$%%++%%++oo+oXXXooooo",
"oXXX++*-@+@+++++++++++oooXXoo+o++++++++++$+oooooXXXooXXX",
"oXX++@-%%@+++oooo++++++ooXXoooo+$+++++o++++oooooXXXooXoo",
"oXX+@@--%@++oo++++++++++o Xooooo+++++oo+++oooooooooooXoo",
"oo+@@%%%%%++oXo+++++++++oooo+oo+++ooooooo+oXoooooooXXooo",
"ooo+@%;:-%+++oo++++++++++++++++$+ooo+o+oo++ooooXXoXXXXoo",
"ooo+%%;:::%+++oo++++$$++o+++++++oooo+++oooooXXXXXooooooo",
"+oo$%%%122:%$$++ooo++$$+++o+++oooXXoXo+oXoXXXXXXXooooooo",
"+++%%>%12222%$+++oo+$+$+$+++++o+oXXoooXXXXXXXXXXoooo+oo+",
"+++$%%1>2222<%%+++++$$+$+++++ooo XXXooX XXXXXoXooo+++oo+",
"$++$%<<<22222-%$$$$$$$++$+++ooo   o++XXXXXXoXoooooooooo+",
"$$%%<<<222221%%$%%++$+$++++++oo XXo+oXXXooXoooooXooooo++",
"$$$%--->-222%%@$%$+++$$++++$+ooXXXooooXXXXXoooooXoXoo+++",
"$$$$%-<%%<2%%%++%$++$$$+++$%+oo+oXXooooo+ooooXoXXooooo++",
"$$++%%>%%11%%+@+%$%$$%$++++$++o+oooooooooooooXXXoXXoooo+",
"$+$$%>%><>%%++%%%%%%%%$++$$$$+ooooooooooo oooXXXoXooooo+",
"++++$>%>>%>%++%%%%%%>>%%$%$$$$+ooo++oXXooooooXXXooooooo+",
"++++$<$$>%$$$%%%%%%%%$%%$$+++$$+++++ooooooooooooXXoooooo",
"++$$>>>><>$$>>%11>%$%$$$$%$$+++$++++oooooooooooXoXXoXXoo",
"o$$$$<<<2>$%%%%11%%%%$$++%%$+++++++oo++ooooo+ooXooXXXXoo",
"+$$$=<<<<>%%%>11;%%%%+$++$%$++++o++oo+++oooooooXoooXXooo",
"++$o=<=>111>%11111$++%$++$%$++++++++ooooooooooo+oooXoooo",
"o$$o=<<>>>>1%1%%%%+++$++++%%$++++$oooXXXXXooooo++oXXXooo",
"oo$==<<%%%>>%%>;;%%%%++++++$$++$++oooXoXXXXoooo++++oXXoo",
"oo&==-$%%>1>$$$$@%%%%%+o+++++$$$+++oooXXXXXXoo+++%++oo+X",
"oo+&$%%%%>%$$++o+@%@%%+XXoo++$%$$++oXoXXXXXXoo+++$%+oooo",
"+oo+=%%%%1%$++++@@@+++oXXXXo+%%$$+ooXXXXXXX++++%%+%+oXoo",
"++o+=%%%%%%+o+oo+++++++oXXXX+%%$ooXXXX XXXo+++++%+%%+ooo",
"o+++++%%++++++XoXX+++++XXXXXo++$+ooXXXXXXXXo+%$+$$++&ooo",
"Xo&&++++++o++oXXXXX+++XXXXXXXXo++ooXXXXXXXXoo++$%$&o&ooo",
"Xoo&&$$+++XXXXXXXXXXXXXXXXXXXXooooXXXXXXXXXooo+$$&ooo&oo",
"ooo&&&&&+oooXXXXXXXXXXXXXXXXXXXXoXXXXXXXXXXXo++++oo+ooXo",
"Xoooooo&oXoXXXXXXXXXXXXXXXXXXXXXXXXXXXXXXXX+++++ooooXXXX",
"oooooo&ooooXXXXXXXXXXXXXXXXXXXXXXXXXXXXXXXX+++&&+oXXXoXX",
"ooooooo&++oooXXXXXXXXXXXXXXXXXXXXXXXXXXXXX++++&&&ooXooXo",
"ooo&++&++ooooXXXXXXXX.XXXXXXXXXXXXXXXX.XXXX++*&&&ooooooo",
"ooo&&&&+&+oooXXXXXXXX.XXXXo++oo+oXXXXXXXXXXo&&&&&oXooooo",
"oo+&&&&+&+oooXX.XXXX..XXooo+++++ooXXXXXXXXX+&&&o&Xooo&oo",
"&&++++++&&ooXXX.XXXX..Xoo++$++@&ooXXXXXX+++&o&oXXXooooo&"
};
