/* XPM */
static char *_2d401643e744a958a1f5c19184868627MILUZcO0pNSmyBz[] = {
/* columns rows colors chars-per-pixel */
"56 56 180 2 ",
"   c None",
".  c #000102",
"X  c #0B0700",
"o  c #0C0B0B",
"O  c #04060A",
"+  c #19140F",
"@  c #121112",
"#  c #1D1C1C",
"$  c #281A05",
"%  c #3E1E08",
"&  c #352002",
"*  c #24201B",
"=  c #372D1F",
"-  c #3D301E",
";  c #1B1E22",
":  c #182534",
">  c #2B2B2C",
",  c #242526",
"<  c #272F3A",
"1  c #2D3034",
"2  c #353535",
"3  c #3B3B3B",
"4  c #3D3B36",
"5  c #3A352D",
"6  c #432308",
"7  c #4A2A08",
"8  c #4F3008",
"9  c #533308",
"0  c #5C3A08",
"q  c #583707",
"w  c #593E17",
"e  c #643E07",
"r  c #643E08",
"t  c #4A3B26",
"y  c #4B3E2A",
"u  c #473C2B",
"i  c #403F3D",
"p  c #6A393C",
"a  c #5D4219",
"s  c #6C4206",
"d  c #674109",
"f  c #6B4208",
"g  c #6F4808",
"h  c #734606",
"j  c #764907",
"k  c #7C4C05",
"l  c #714608",
"z  c #754909",
"x  c #7C4E08",
"c  c #7F5009",
"v  c #634214",
"b  c #61461E",
"n  c #764E14",
"m  c #7C5313",
"M  c #7A5318",
"N  c #544124",
"B  c #5D4A2E",
"V  c #594320",
"C  c #4C4438",
"Z  c #5B4C36",
"A  c #654B22",
"S  c #765728",
"D  c #644F30",
"F  c #67553C",
"G  c #775B33",
"H  c #293441",
"J  c #3B3E42",
"K  c #3F4A58",
"L  c #414242",
"P  c #4D4A46",
"I  c #4B4B4B",
"U  c #5C5142",
"Y  c #54504C",
"T  c #5C5849",
"R  c #4E5156",
"E  c #515253",
"W  c #5E5A55",
"Q  c #5B5C5C",
"!  c #685A44",
"~  c #635F59",
"^  c #7C694C",
"/  c #6A6357",
"(  c #575E67",
")  c #5F6061",
"_  c #626466",
"`  c #6E6A63",
"'  c #6A6B6D",
"]  c #736D64",
"[  c #747169",
"{  c #6D6F71",
"}  c #6E7073",
"|  c #787878",
" . c #8A0109",
".. c #8A0006",
"X. c #950008",
"o. c #9D0008",
"O. c #840C14",
"+. c #8D171E",
"@. c #A60008",
"#. c #A90008",
"$. c #B90810",
"%. c #B2353B",
"&. c #C50A12",
"*. c #CC0A12",
"=. c #DE0A12",
"-. c #DE1219",
";. c #C4141B",
":. c #E1141D",
">. c #E50E17",
",. c #D32125",
"<. c #CE3239",
"1. c #804F06",
"2. c #835107",
"3. c #825108",
"4. c #895608",
"5. c #8D5908",
"6. c #985E03",
"7. c #955E08",
"8. c #985E06",
"9. c #865A18",
"0. c #A0471E",
"q. c #9A6106",
"w. c #996108",
"e. c #97610C",
"r. c #89601F",
"t. c #966314",
"y. c #A46C07",
"u. c #A06708",
"i. c #A56D08",
"p. c #A87008",
"a. c #B57D08",
"s. c #9F4D3F",
"d. c #956C2A",
"f. c #986A23",
"g. c #904549",
"h. c #90595B",
"j. c #A1484D",
"k. c #967747",
"l. c #995B61",
"z. c #8C7D64",
"x. c #9D787A",
"c. c #B88008",
"v. c #858179",
"b. c #998D7B",
"n. c #A08D6F",
"m. c #AC9776",
"M. c #7A7E84",
"N. c #AD7F81",
"B. c #7B899A",
"V. c #858482",
"C. c #868B8B",
"Z. c #8C8C8C",
"A. c #938C86",
"S. c #8E8F91",
"D. c #8B9090",
"F. c #939393",
"G. c #9D9D9D",
"H. c #999A99",
"J. c #AA9D88",
"K. c #A49E96",
"L. c #A3A3A3",
"P. c #ABABAB",
"I. c #A7A8A9",
"U. c #ABAEB0",
"Y. c #B5B5B5",
"T. c #B9B9B9",
"R. c #B8B8B8",
"E. c #CBB9BA",
"W. c #BDBFC0",
"Q. c #C3C4C4",
"!. c #CBCBCB",
"~. c #C9C3C5",
"^. c #D0D0CF",
"/. c #D5D5D5",
"(. c #DBDBDB",
"). c #D5D8D8",
"_. c #E2E2E3",
"`. c #ECECEC",
"'. c #F4F4F4",
"]. c #F9F9F9",
/* pixels */
"                                                                                                                ",
"                                                                                                                ",
"                                                                                                                ",
"                                                  u.i.p.a.c.c.c.c.a.p.                                          ",
"                                              u.p.a.c.c.c.c.c.c.c.c.c.c.a.p.                                    ",
"                                        q.i.i.p.a.c.c.c.c.c.c.c.c.c.c.c.c.a.p.i.p.                              ",
"                                      u.i.p.p.a.c.c.c.c.c.c.c.c.c.c.c.c.c.c.p.p.p.q.                            ",
"                                    q.i.p.p.p.p.a.a.c.c.c.c.c.c.c.c.c.c.a.a.p.p.p.u.q.                          ",
"                                7.q.p.p.p.p.p.p.p.a.a.a.c.c.c.c.c.a.a.a.a.p.p.p.p.p.u.e.                        ",
"                              e.e.q.p.p.p.p.p.p.p.p.p.p.a.c.a.a.c.a.p.p.p.p.p.p.p.p.u.e.e.                      ",
"                              e.u.i.p.p.p.p.p.p.p.p.p.p.p.p.p.p.p.p.p.p.p.p.p.p.p.p.i.i.q.                      ",
"                              e.y.p.p.p.p.p.p.p.p.p.p.p.p.i.i.i.i.p.p.p.p.p.p.p.p.p.p.i.q.7.                    ",
"                            G e.y.p.p.p.p.p.p.p.p.p.p.p.p.p.p.p.p.p.p.p.p.p.p.p.p.p.p.p.u.e.q.                  ",
"                        2 1 V 7.y.i.p.p.p.p.p.p.p.p.p.p.p.p.p.p.p.p.p.p.p.p.p.p.p.p.p.p.p.u.e.                  ",
"                      E Q 3 N 7.q.q.p.i.i.p.p.p.p.p.p.p.p.p.p.p.p.p.p.p.p.p.p.p.p.p.p.p.p.u.e.                  ",
"                    2 Q P.C.^ 7.q.4.g e f 5.u.p.p.p.p.p.p.p.p.p.p.p.p.p.p.p.p.p.p.p.p.p.p.u.e.                  ",
"                  Z.Z.P._.!.J.k.9.j d d x e.i.p.p.p.p.p.p.p.p.p.p.p.p.p.p.p.p.p.p.p.p.p.u.q.e.                  ",
"                  P._.].].`.!.H.G k 5.i.p.p.p.p.p.p.p.p.p.p.p.p.p.p.p.p.p.p.p.p.p.p.p.i.q.7.e.                  ",
"                  ].].].].]._.Y.k.e.i.p.p.p.p.p.p.p.p.p.p.p.p.p.p.p.p.p.p.p.p.p.p.p.p.i.q.7.e.                  ",
"                  ].].].].].`.^.K.k.q.y.p.p.p.p.p.p.p.p.p.p.p.p.p.p.p.p.p.p.p.p.p.p.i.e.e.e.7.4.                ",
"                  _.'.].].`._./.T.n.e.q.u.p.p.p.p.p.p.p.p.p.p.p.p.p.p.p.p.p.p.p.p.u.q.q.q.q.7.4.                ",
"                  !._.`.`.(.(.(.Q.m.e.6.q.u.u.i.p.p.p.p.p.p.p.p.p.p.p.p.p.p.y.y.u.e.7.e.q.q.7.4.                ",
"                  Y.!.(.(./.!.Q.W.J.f.e.q.e.e.q.i.i.i.p.p.p.p.p.p.p.p.i.i.i.q.6.e.e.e.e.q.q.6.4.                ",
"                  H.T././.!.G.} G.P.b.d.6.e.e.e.e.e.u.i.i.i.i.i.i.p.i.q.e.e.q.q.e.e.e.e.q.q.6.4.                ",
"                  (.L.F./.(.P._ | S.A.d.6.q.e.e.e.e.q.q.q.q.q.q.q.q.q.e.e.e.q.q.q.q.e.e.e.q.6.4.                ",
"                g.L.C.D.Q.T.P.F.Q ( v.d.6.e.e.e.e.e.q.6.6.6.7.7.6.6.6.q.q.q.e.e.q.q.e.e.e.q.6.4.x               ",
"              ..O.p h.N.I.H.F.Z.) R ~ r.q.q.e.e.e.e.e.q.e.e.e.e.e.e.q.q.q.e.e.e.q.q.e.e.e.e.7.4.x 3.            ",
"              #.o. .$.<.x.A.` 3 [ ] u c q.q.e.e.e.e.q.q.e.e.e.e.e.e.e.q.e.e.e.e.q.q.e.e.e.e.7.4.x 3.            ",
"              #.@.@.*.:.,.0.A 5 S t.5.7.q.q.e.e.e.e.e.e.i.p.y.q.e.e.e.e.q.q.q.8.q.q.q.q.e.e.7.4.x 3.            ",
"               .X.#.*.>.-.s.T 2 C S e.q.q.q.e.e.e.7.q.i.p.p.y.y.q.7.e.e.q.q.q.q.q.q.e.e.e.7.4.3.3.x f           ",
"                ..X.&.=.&.l.[ N 4 B 7.q.q.q.e.e.e.q.i.p.p.p.p.p.i.q.e.e.q.q.e.q.e.e.e.e.e.5.3.3.3.x f r         ",
"                  O.$.;.%.x.z.c w b 7.e.6.6.8.8.e.i.p.p.p.p.p.p.p.i.e.e.6.7.7.e.e.e.e.e.7.4.3.3.3.x f           ",
"                    +.j.~.U.z.3.x 4.7.e.5.3.7.e.e.i.p.p.p.p.p.p.p.i.e.e.7.2.5.e.e.e.q.6.4.3.3.3.3.x f           ",
"                    E.E./.Q.b.3.x 3.4.7.3.d 4.u.i.p.p.p.p.p.p.p.p.p.i.q.7.3.5.e.e.e.7.2.3.3.3.3.j d 0           ",
"                    (.).Q.W.K.^ M 1.3.4.z 0 x e.p.p.p.p.p.p.p.p.p.p.p.u.7.3.7.7.4.4.4.3.c x c 3.z r 0           ",
"                    !.Q.T.T.I.V.S k 1.3.f 0 j 7.y.i.p.p.p.p.p.p.p.i.u.q.7.3.4.4.3.x c 3.c 3.3.x f e 9           ",
"                    T.T.T.T.P.Z.G s c 3.z e z 4.e.i.p.p.p.p.p.p.p.i.e.7.5.3.c 3.3.3.3.3.x x x f e q 6           ",
"                      R.T.T.P.Z.G s x 3.3.x e z e.i.p.p.p.p.p.p.p.i.e.4.3.3.3.3.3.3.3.3.3.z d d e q 6           ",
"                      P.Y.L.F.Z.` D f x 3.x e z e.q.u.p.p.p.p.p.u.e.e.x l x 3.3.3.3.3.c z d d 0 9 7 e j 3.      ",
"                      Z.L.F.F.Z.} ! d s d d 0 f 5.7.q.u.i.p.i.u.q.7.5.z f 1.3.3.3.j l l d r 0 0 7 6 e z f 0     ",
"                      | V.Z.S.C.{ U e 0 0 e r l 3.5.7.e.u.i.u.e.7.4.x f d z z z j f r d r 0 q 9 7 6 7 8 8 9     ",
"                        M.C.V.[ / Z 0 r z x 3.x x c 4.7.7.7.7.7.4.j d d d 0 0 0 r r r r 0 q q 6 % 6 6 6 6 6     ",
"                          B./ a v g x x x 3.3.z f x 3.3.3.3.3.3.z d d z j d 0 0 0 0 0 0 0 9 6                   ",
"                          H * - 0 h 3.3.c 3.5.1.f F ! F y Z ! ! A s z x c x f 0 0 0 9 7 6 6                     ",
"                        : ; , 3 t w j x 4.5.e.z t Y _ _ L E ' _ U b x 3.x z f r e 9 7 6 %                       ",
"                        @ 2 I L > = v z 4.7.q.n u i Q ' I Q { Q Y D c 3.x d r e 0 7 % 6                         ",
"                        L L 3 > @ # C w s 3.7.e.4.t P W 4 P W P A x x x j d 0 9 6                               ",
"                        o o o o > 3 2 + & f 3.4.3.z n M n n n v d s f f d 0                                     ",
"                          . o > 3 > @ . X $ e z l h h h h h h s s r 0 e                                         ",
"                            < ( J # . . X $ 9 r r r r r r r e r d r 0                                           ",
"                                K , O O $ 0 0 0 d d d d d e 0                                                   ",
"                                                                                                                ",
"                                                                                                                ",
"                                                                                                                ",
"                                                                                                                ",
"                                                                                                                "
};
