/* XPM */
static char *_bb34aaa01244e1c93c272d5cda16bc8YUB24GLhxZP86voa[] = {
/* columns rows colors chars-per-pixel */
"56 45 169 2 ",
"   c None",
".  c #2F1F02",
"X  c #3E1E06",
"o  c #322102",
"O  c #3C2412",
"+  c #36332D",
"@  c #3A342B",
"#  c #2F3032",
"$  c #333435",
"%  c #3A3937",
"&  c #353639",
"*  c #3A3A3A",
"=  c #401F07",
"-  c #492807",
";  c #402007",
":  c #4D3006",
">  c #583705",
",  c #583606",
"<  c #46341A",
"1  c #4E381A",
"2  c #493417",
"3  c #523813",
"4  c #5D3D11",
"5  c #503918",
"6  c #643C02",
"7  c #6A3F04",
"8  c #413727",
"9  c #4B3C24",
"0  c #6C4206",
"q  c #6B4309",
"w  c #64420F",
"e  c #764907",
"r  c #70470D",
"t  c #774A08",
"y  c #7D4F09",
"u  c #7F500A",
"i  c #6E4B17",
"p  c #6D521F",
"a  c #70521B",
"s  c #4D4027",
"d  c #594322",
"f  c #4C463B",
"g  c #564A39",
"h  c #5E5139",
"j  c #644E2E",
"k  c #6C5023",
"l  c #654E30",
"z  c #6B5537",
"x  c #775F3D",
"c  c #785F3D",
"v  c #755A31",
"b  c #7A5620",
"n  c #454545",
"m  c #49494A",
"M  c #4B4844",
"N  c #575758",
"B  c #5A5048",
"V  c #625B54",
"C  c #63615D",
"Z  c #7B6C58",
"A  c #5D5F61",
"S  c #5E6062",
"D  c gray38",
"F  c #6A6968",
"G  c #7A7774",
"H  c #746F6A",
"J  c #AB0C14",
"K  c #B52A0D",
"L  c #AE1E25",
"P  c #A72328",
"I  c #B02F35",
"U  c #B1383D",
"Y  c #CD0E16",
"T  c #D00F16",
"R  c #DC0F16",
"E  c #CD1C13",
"W  c #E30E18",
"Q  c #E20A12",
"!  c #8E4408",
"~  c #8C4705",
"^  c #845204",
"/  c #8F5A06",
"(  c #825108",
")  c #8A5708",
"_  c #8E5A0B",
"`  c #8A5401",
"'  c #955E08",
"]  c #955E07",
"[  c #8C4F1B",
"{  c #805817",
"}  c #906007",
"|  c #9C6306",
" . c #966109",
".. c #996208",
"X. c #9F6B0A",
"o. c #9C6D14",
"O. c #9F701B",
"+. c #8D6417",
"@. c #A06603",
"#. c #A46C07",
"$. c #A06708",
"%. c #A56D08",
"&. c #A97007",
"*. c #A87008",
"=. c #B37B08",
"-. c #AA7718",
";. c #825F20",
":. c #BC4320",
">. c #876D47",
",. c #94794D",
"<. c #997D4F",
"1. c #887C68",
"2. c #897C65",
"3. c #847E75",
"4. c #947B7C",
"5. c #B6686C",
"6. c #CF7076",
"7. c #B88008",
"8. c #918572",
"9. c #968E7E",
"0. c #9E8E78",
"q. c #B2847F",
"w. c #A9987D",
"e. c #B6A67B",
"r. c #4B6381",
"t. c #8C8C8C",
"y. c #8D8983",
"u. c #958E83",
"i. c #94908A",
"p. c #8F9091",
"a. c #929394",
"s. c #9A9793",
"d. c #979898",
"f. c #9A9B9C",
"g. c #AC9D87",
"h. c #A69B85",
"j. c #B39488",
"k. c #B2A184",
"l. c #A6A39D",
"z. c #AFA699",
"x. c #B7AB97",
"c. c #A4A4A4",
"v. c #A5A7A9",
"b. c #A7A8AA",
"n. c #ABABAB",
"m. c #B5A7A7",
"M. c #B4B4B5",
"N. c #B7B8B9",
"B. c #BABABA",
"V. c #B4B6B9",
"C. c #EB9396",
"Z. c #CBBEA9",
"A. c #C0B7B7",
"S. c #CEC2AA",
"D. c #C4C0B9",
"F. c #BEC0C2",
"G. c #C4C5C5",
"H. c #CBCACA",
"J. c #D4D5D5",
"K. c #DADADA",
"L. c #DBD1D2",
"P. c #DEDFE2",
"I. c #E3E3E3",
"U. c #EFE1E2",
"Y. c #EBEAEA",
"T. c #F2E6E7",
"R. c #EAF0EE",
"E. c #F3F3F4",
"W. c #F9F9F9",
/* pixels */
"                                                                                                                ",
"                                                                                                                ",
"                                                                                                                ",
"                                                    7.7.7.7.*.%.                                                ",
"                                                =.=.7.7.7.7.=.=.&.%.                                            ",
"                                            &.=.7.7.7.7.7.7.7.7.=.&.%.*.                                        ",
"                                        *.%.=.7.7.7.7.7.7.7.7.7.7.&.%.*.*.                                      ",
"                                      *.*.*.*.=.7.7.7.7.7.7.7.7.=.*.*.*.*.*.                                    ",
"                                    *.*.*.*.*.*.=.=.7.7.7.7.=.=.*.*.*.*.*.*.*.                                  ",
"                                  %.*.*.*.*.*.*.%.*.=.=.=.=.*.%.*.*.*.*.*.*.%.                                  ",
"                                | %.*.*.*.*.*.*.*.*.*.*.*.*.*.*.*.*.*.*.*.*.%.|                                 ",
"                                *.*.*.*.*.*.*.*.*.*.*.*.*.*.*.*.*.*.*.*.*.*.*.*.                                ",
"                              ..%.*.*.*.*.*.*.*.*.*.*.*.*.*.*.*.*.*.*.*.*.*.*.%...                              ",
"                              ..%.*.*.*.*.%.%.%.*.*.*.*.*.*.*.*.%.%.%.*.*.*.*.%...                              ",
"                              ....%.*.*.*.#.'  .X.*.*.*.*.*.*.X. .' #.*.*.*.%.....                              ",
"                            ( ' ..%.*.*.*.#.) : o %.*.*.*.*.%.o : ) #.*.*.*.%...' (                             ",
"                            u ' ....#.*.*.%.%.} > . %.*.*.%.. > } %.%.*.*.#.....' u M                           ",
"                            9 u ] ......$.&.&.%.| } %.| | %.} | %.&.&.$.......] u 8                             ",
"                          _ + f 1.8.x.Z.Z.S.x.,.@.o.h g g h o.@.,.x.S.Z.Z.x.8.1.f + _                           ",
"                        ..' i G S b.I.E.E.E.P.D.w.s m F F m s w.D.P.E.E.E.I.b.S G i ' ..                        ",
"                        k d ' u.p.K.W.W.W.W.E.Y.F.A % N N % A F.Y.E.W.W.W.W.K.p.u.' d j                         ",
"                        +.a d C d.K.E.W.W.W.E.I.J.M.G % % G M.J.I.E.W.W.W.E.K.d.C d a ;.X.                      ",
"                      *.&.%.p F f.B.K.Y.Y.Y.I.K.J.H.M.D D M.H.J.K.I.Y.Y.Y.K.B.f.F p %.&.*.                      ",
"                      *.*.*.*.<.l.V.G.H.H.H.H.H.G.M.c.c.c.c.M.G.H.H.H.H.H.G.V.l.<.*.*.*.*.|                     ",
"                    #.*.*.*.*.| ,.0.l.M.B.B.B.M.n.b.c.H.H.c.b.n.M.B.B.B.M.l.0.,.| *.*.*.*.#.                    ",
"                    *.*.*.%.*.*.| ` >.0.h.h.j.q.2.8.N.W.W.N.8.2.q.j.h.h.0.>.` | *.*.%.*.*.*.                    ",
"                    *.*.#...%.*.*.$./ ^ ^ ~ K E ! { 9.I.I.9.{ ! E K ~ ^ ^ / $.*.*.%...#.*.*.O.                  ",
"                    *.#...' %.*.*.*.&.@.o.:.W W E ! [ n.n.[ ! E W W :.o.@.&.*.*.*.%.' ..#.*.|                   ",
"                    %...' ( #.*.*.&.-.-.e.6.Q R R T P 4.4.P T R R Q 6.e.-.-.&.*.*.#.( ' ..%.|                   ",
"                  #.%.' y q ' %.%.*.k.H.R.C.R Y J I m.L L m.I J Y R C.R.H.k.*.%.%.' q y ' %.|                   ",
"                   . ._ q u ' ....k.H.Y.W.K.5.U A.L.E.T.T.E.L.A.U 5.K.W.Y.H.k.....' u q _  . .                  ",
"                  v V f 8 u ' ..g.H.J.Y.W.E.Y.U.E.E.W.W.W.W.E.E.U.Y.E.W.Y.J.H.g...' u 8 f V b                   ",
"                    N $ @ y ( ( z.J.K.K.Y.W.W.W.W.W.W.W.W.W.W.W.W.W.W.Y.K.K.J.z.( ( y @ $ N B                   ",
"                      + 4 q u 2.n.J.K.J.K.K.Y.W.W.W.W.W.W.W.W.W.W.Y.K.K.J.K.J.n.2.u q 4 + m *                   ",
"                      8 t q r y.M.B.J.K.K.J.K.I.I.I.W.W.W.W.I.I.I.K.J.K.K.J.B.M.y.r q t @ $                     ",
"                      w ( t q G M.B.G.G.H.K.K.K.J.K.I.I.I.I.K.J.K.K.K.H.G.G.B.M.G q t ( 4                       ",
"                      0 e ( q z s.M.B.M.B.G.G.H.K.K.K.K.K.K.K.K.H.G.G.B.M.B.M.s.z q ( e 0 6                     ",
"                    2 1 1 0 0 7 c s.M.B.B.B.M.B.H.H.H.H.H.H.G.G.B.M.B.B.B.M.s.c 7 0 0 1 1 <                     ",
"                      # % < 1 5 > x i.v.b.n.B.B.M.M.B.B.B.B.N.M.B.B.M.b.v.i.x > 5 1 < % # &                     ",
"                      * m % # & 9 3 z Z 3.f.B.B.B.M.b.b.b.b.n.n.n.b.d.3.Z z 3 9 & # % m * * %                   ",
"                      m m n % m m & 3 6 l B         t.t.t.t.t.t.a.F V l 6 3 & m m % n m m % *                   ",
"                        n $ m m m $ 2 , - X                         X - , 2 $ m m m $ n n m * r.                ",
"                                    O ;                                 = O # $ m m m $ $                       ",
"                                                                                                                ",
"                                                                                                                "
};
