/* XPM */
static char *result[] = {
/* columns rows colors chars-per-pixel */
"41 53 13 1 ",
"  c black",
". c #313131",
"X c #226B22",
"o c #294656",
"O c #5C5C5B",
"+ c #39A839",
"@ c #4EC74E",
"# c #497B97",
"$ c #52E9FF",
"% c #848483",
"& c #A6A6A5",
"* c #CFCFCE",
"= c None",
/* pixels */
"=========================================",
"=================       =================",
"===============  .......  ===============",
"=============  ..O%%O%%O..  =============",
"============ ..OO%%ooo%%OO.. ============",
"============ ..%%oo#$#oo%%.. ============",
"=========== .O.%o##$$$##o%.O. ===========",
"========== ..O.%&o&&&&&o&%.O.. ==========",
"========== .O..OOO&&&&&OOO..O. ==========",
"========== .O.O%&O&&&&&O&%O.O. ==========",
"========== ...O%&.&%%%&.&%O... ==========",
"========== .OOO%&       &%OOO. ==========",
"========== .     .......     . ==========",
"==========  .....OOO.OOO.....  ==========",
"========= ..OOOOOOOO.OOOOOOOO.. =========",
"======== .OOOOOOOO%%O%%OOOOOOOO. ========",
"======= .OOOO%%%%%%%O%%%%%%%OOOO. =======",
"====== .OOOO%%%%%%%%O%%%%%%%%OOOO. ======",
"====== .OOO%%%%%%%%%O%%%%%%%%%OOO. ======",
"===== .OOO%%%%%%%%%&O&%%%%%%%%%OOO. =====",
"===== .OO%%%%%%%&&&&O&&&&%%%%%%%OO. =====",
"==== .OOO%%%%%%&&&&&O&&&&&%%%%%%OOO. ====",
"==== .OO%%%OOO&&&&&&O&&&&&&OOO%%%OO. ====",
"==== OO%%%OXXXO&&&&*O*&&&&OXXXO%%%OO ====",
"=== OOO%%OXXXXO&&***&***&&OXXXXO%%OOO ===",
"=== OO%%%OXX++O&&***&***&&O++XXO%%%OO ===",
"== OOO%%OXXX++O&****&****&O++XXXO%%OOO ==",
"== OOO%%OXX++++O****&****O++++XXO%%OOO ==",
"== OO%%%OXX++++%****&****%++++XXO%%%OO ==",
"== OO%%%%O++++@%****&****%@++++O%%%%OO ==",
"== OO%%%%O++++@@%***&***%@@++++O%%%%OO ==",
"= .OO%%%%&O+++@@%***&***%@@+++O&%%%%OO. =",
"= .O%%%%%&&O+@@@@%**&**%@@@@+O&&%%%%%O. =",
"= O.%%%%&&&&O@@@@%**&**%@@@@O&&&&%%%%.O =",
"= O.%%%%&&&&&%@@@@%*&*%@@@@%&&&&&%%%%.O =",
"= OOO%%%&&&&&*%@%%**&**%%@%*&&&&&%%%OOO =",
"= OO%OO%&&&&&**%**&&&&&**%**&&&&&%OO%OO =",
"= OO%%%OO&&&*****&O...O&*****&&&OO%%%OO =",
"= OOO%%%&OO&****&O.....O&****&OO&%%%OOO =",
"== OO%%%&&&O&&&&&.......&&&&&O&&&%%%OO ==",
"== OO%%%&&&&****&O.....O&****&&&&%%%OO ==",
"=== OO%%%&&&&*%*&OO...OO&*%*&&&&%%%OO ===",
"=== OO%%%&&&&O@%*&&OOO&&*%@O&&&&%%%OO ===",
"==== OO%%%&OO+@%***&&&***%@+OO&%%%OO ====",
"===== OO%OO+++@@%***&***%@@+++OO%OO =====",
"====== .OXX++++@O&**&**&O@++++XXO. ======",
"======= XXXX+++O&&&&O&&&&O+++XXXX =======",
"======== XXXX+O%%%&&O&&%%%O+XXXX ========",
"=========  X..%%%%%%O%%%%%%..X  =========",
"===========   OOO%%%O%%%OOO   ===========",
"==============   OOO.OOO   ==============",
"=================       =================",
"========================================="
};
