/* XPM */
static char *e68829aaa3554c8debfa65a73b8dd876W3VFFKRuA66Gncxp[] = {
/* columns rows colors chars-per-pixel */
"56 56 163 2 ",
"   c None",
".  c #040405",
"X  c #1F1403",
"o  c #111212",
"O  c #1B1B1B",
"+  c #251601",
"@  c #3F1F08",
"#  c #32230F",
"$  c #1C1E21",
"%  c gray18",
"&  c #353535",
"*  c #3C3C3B",
"=  c #3A3835",
"-  c #411F06",
";  c #412108",
":  c #492708",
">  c #4C2C08",
",  c #442D0F",
"<  c #512F08",
"1  c #4F3008",
"2  c #533308",
"3  c #593408",
"4  c #5B3A08",
"5  c #583603",
"6  c #432E1E",
"7  c #4D3715",
"8  c #633D06",
"9  c #633E08",
"0  c #683E08",
"q  c #4A3A23",
"w  c #523F21",
"e  c #413F3D",
"r  c #7D292D",
"t  c #7E293F",
"y  c #674009",
"u  c #6B4208",
"i  c #6F4304",
"p  c #724605",
"a  c #714608",
"s  c #744908",
"d  c #7D4E08",
"f  c #794B06",
"g  c #7F5008",
"h  c #644416",
"j  c #6E4A14",
"k  c #64481D",
"l  c #785116",
"z  c #564325",
"x  c #4D4334",
"c  c #6A532D",
"v  c #785A2D",
"b  c #6D5738",
"n  c #6E5533",
"m  c #755A35",
"M  c #3F4243",
"N  c #454544",
"B  c #464748",
"V  c #4D4D4C",
"C  c #545556",
"Z  c gray36",
"A  c #545659",
"S  c #605F5E",
"D  c #665E50",
"F  c #686156",
"G  c #796E5C",
"H  c #56687F",
"J  c #626261",
"K  c #6A6A6B",
"L  c #747474",
"P  c #7D7675",
"I  c #800008",
"U  c #970005",
"Y  c #9A0209",
"T  c #851018",
"R  c #AB050D",
"E  c #B40F17",
"W  c #A5282E",
"Q  c #C8020B",
"!  c #CC0F17",
"~  c #CA2F35",
"^  c #804F07",
"/  c #845105",
"(  c #815108",
")  c #895608",
"_  c #8D5908",
"`  c #8B5606",
"'  c #985F07",
"]  c #945D08",
"[  c #935C06",
"{  c #805512",
"}  c #865914",
"|  c #80581D",
" . c #8B5F1A",
".. c #9A6106",
"X. c #94600C",
"o. c #996108",
"O. c #8D601B",
"+. c #976312",
"@. c #A36905",
"#. c #A56D08",
"$. c #A87008",
"%. c #B47C08",
"&. c #845F27",
"*. c #906520",
"=. c #956A25",
"-. c #927139",
";. c #935153",
":. c #A3464C",
">. c #8B7048",
",. c #806E53",
"<. c #927F61",
"1. c #887B7D",
"2. c #937475",
"3. c #B88008",
"4. c #958264",
"5. c #8A8071",
"6. c #978C7A",
"7. c #AA9676",
"8. c #AC9879",
"9. c #557091",
"0. c #7E7F82",
"q. c #6384AE",
"w. c #7C98BA",
"e. c #7AB0F7",
"r. c #7CB6FE",
"t. c gray53",
"y. c #8E8E8D",
"u. c #888585",
"i. c #908F8F",
"p. c #93918E",
"a. c #8B9494",
"s. c #89919B",
"d. c #929292",
"f. c #9D9C9C",
"g. c #AE8081",
"h. c #AE8688",
"j. c #8E9BAA",
"k. c #A2A2A2",
"l. c #A9AAA8",
"z. c #ABB0B0",
"x. c #B4B4B4",
"c. c #B4B7BB",
"v. c #BBBDBD",
"b. c #CAA0A2",
"n. c #CBBCBD",
"m. c #C3B2B3",
"M. c #A8B7CA",
"N. c #B2BFCF",
"B. c #BDCCE0",
"V. c #C6C6C6",
"C. c #C6C9CC",
"Z. c #CCCCCB",
"A. c #D0C5C6",
"S. c #CFD2D1",
"D. c #D5D5D5",
"F. c #DBDBDB",
"G. c #D6E5F9",
"H. c #E3E3E2",
"J. c #E9E9E9",
"K. c #EAE8E5",
"L. c #F5F5F5",
"P. c #FBFAFA",
"I. c #F9F7F5",
/* pixels */
"                                                                                                                ",
"                                                                                                                ",
"                                                                                                                ",
"                                                                                                                ",
"                                              %.3.3.3.3.%.$.#.                                                  ",
"                                        $.%.3.3.3.3.3.3.3.3.3.$.@...                                            ",
"                                      $.%.3.3.3.3.3.3.3.3.3.3.3.$.$.#.o.                                        ",
"                                    $.$.%.3.3.3.3.3.3.3.3.3.3.3.$.#.$.#.o.                                      ",
"                                  $.$.$.$.%.3.3.3.3.3.3.3.3.%.$.$.$.$.$.#...-.                                  ",
"                                #.$.$.$.$.$.$.%.3.3.3.3.%.$.$.$.$.$.$.$.$...+.-.                                ",
"                              @.#.$.$.$.$.$.#.$.%.%.%.%.$.#.#.$.$.$.$.$.$.@...=.                                ",
"                              $.$.$.$.$.$.$.$.$.#.#.#.#.$.$.$.$.$.$.$.$.$.$.@.=.w.                              ",
"                            @.#.$.$.$.$.$.$.$.$.$.$.$.$.$.$.$.$.$.$.$.$.$.$.@.O.K q.                            ",
"                            $.$.$.$.$.$.$.$.$.$.$.$.$.$.$.$.$.$.$.$.$.$.$.$.@.{ & & 9.                          ",
"                            $.$.$.$.$.$.$.$.$.$.$.$.$.$.$.$.$.$.$.$.#.#.#.....{ = C C H                         ",
"                          @.$.$.$.$.$.$.$.$.$.$.$.$.$.$.$.$.$.$.$...d 3 9 ) ..*.1.x.S A j.                      ",
"                          o...#.$.$.$.$.$.$.$.$.$.$.$.$.$.$.$.$.$.#.o.( a a &.6.V.J.C.f.s.                      ",
"                          ] o.#.$.$.$.$.$.$.$.$.$.$.$.$.$.$.$.$.$.$.$.$.o./ >.c.J.I.P.H.N.r.                    ",
"                        ] o.o.@.#.$.$.$.$.$.$.$.$.$.$.$.$.$.$.$.$.$.$.$.#.=.7.D.I.I.I.P.G.r.                    ",
"                        [ o.o.o.@.#.$.$.$.$.$.$.$.$.$.$.$.$.$.$.$.$.$.#.o.4.c.H.L.I.I.I.G.r.                    ",
"                        [ o.o.o.o.@.#.#.#.#.#.$.$.$.$.$.$.$.#.#.#.#.@.o.' 7.C.F.F.L.I.K.B.r.                    ",
"                        [ o.o.o.o.o.o.o.o.o.@.$.$.$.$.$.$.#.o.o.o.o.o.o.o.8.C.D.D.F.F.Z.M.e.                    ",
"                        _ o.o.o.o.o.o.o.o.o.o.o.o.o.o.o.o.o.o.o.o.o.' X.<.l.f.t.v.D.F.v.1.t                     ",
"                      d _ o.o.o.o.o.o.o.o.o.o.o.o.o.o.o.o.o.o.o.o.o.' +.6.d.L L Z.F.k.z.b.Y                     ",
"                    ( g _ o.o.o.o.o.o.o.o.o.o.o.o.o.o.o.o.o.o.o.o.o.o.+.5.J K f.x.V.a.a.h.R                     ",
"                    ( g _ o.o.o.o.o.o.o.o.o.o.o.o.o.o.o.o.o.o.o.o.o.o.X.D C K y.d.l.g.;.r Y                     ",
"                    ( ( ) ] o.o.o.o.o.o.o.o.o.o.o.o.o.o.o.o.o.o.o.o.o.[ w G F N u.2.~ Q U I                     ",
"                  u d ( g ) o.o.o.o.o.o.o.o.o.o.o.o.o.o.o.o.o.o.o.o.o.o.] X.k M P W ! E T                       ",
"                  u d ( d ) o.o.o.o.o.o.o.@.#.#.#.#.o.o.o.o.o.o.o.o.o.o.o.c * B i.n.:.:.A.                      ",
"                  u d ( ( ( ) ] o._ ) o.#.$.$.$.$.$.#...o.o.o.o.o.o.o.o.o.z q v d.v.m.n.F.                      ",
"                  9 i d ( ( ( ) ) _ [ o.#.$.$.$.$.$.$...o.] ) ] o.o.o.o.) j i &.p.x.S.F.                        ",
"                  4 y d ( ( ( d d _ ..@.#.$.$.$.$.$.$...o.] ( ) _ _ _ ) ( ( | ,.d.x.Z.D.                        ",
"                  2 9 a d ( ( ( g _ ..$.$.$.$.$.$.$.$...] ) s d ( d d d ( f m 0.d.x.V.V.                        ",
"              a u ; 2 9 a d ( ( ( _ ..$.$.$.$.$.$.$.#...) a 9 d ( ( ( ( ( i b 0.d.l.x.x.                        ",
"              i 0 : 2 9 y a d ( d _ ..$.$.$.$.$.$.#...o.d 9 d ( ( ( ( ( ( a n P y.d.k.                          ",
"              > u a : 2 9 u i d i ( ..$.$.$.$.$.$.#.o._ a 9 d ( _ ] ] ] ] ) s n y.y.d.                          ",
"                < 4 ; 2 4 9 u u u ( o...#.$.$.$.#...o.) a u g [ ] o.o.o.o.] ` j N C C                           ",
"                  > > > 2 4 4 9 4 s [ o...#.$.#...o._ a a ) [ ] o.o.o.o.o.[ ( h e B * *                         ",
"                    > > > 2 4 9 4 y ( o.o...@...o.] ) u s o.o.o.o.o.o.o._ d 5 # * B N % O                       ",
"                      2 > ; > 1 2 9 f [ o.o.o.o.o.o.^ s ) o.o.o.[ [ [ _ ( s , $ & * & O                         ",
"                          ; @ ; > 3 y l  .O.} } O. .h ( o.o.o.] ) d d d d 8 q B B & o                           ",
"                              ; ; - 6 V S J N N J Z * j o.] ] / d s u u u + o & N B                             ",
"                                  - 6 V Z L A C K V & h / ( ( ( a u u 9 4 X . . .                               ",
"                                        V J B B Z = h d ( ( d a 9 4 4 4                                         ",
"                                              x z 7 u a a a i 9 4                                               ",
"                                                5 4 9 9 9 9 9 4                                                 ",
"                                                                                                                ",
"                                                                                                                ",
"                                                                                                                ",
"                                                                                                                ",
"                                                                                                                ",
"                                                                                                                ",
"                                                                                                                ",
"                                                                                                                ",
"                                                                                                                ",
"                                                                                                                "
};
