/* XPM */
static char *e5d2491635f543349da7f42ab7c70ee7ZCN2zSgrAvn6SX4N[] = {
/* columns rows colors chars-per-pixel */
"56 56 253 2 ",
"   c None",
".  c #3E1E08",
"X  c #3F1F08",
"o  c #2E2E2D",
"O  c gray18",
"+  c #2F2F2F",
"@  c #393024",
"#  c #3A3226",
"$  c #31302F",
"%  c #32302E",
"&  c #383228",
"*  c #3B3329",
"=  c #3B342A",
"-  c #3D362B",
";  c #2B2E32",
":  c #2F2F30",
">  c #2F2F31",
",  c #2F3031",
"<  c #2D3136",
"1  c #313131",
"2  c #363432",
"3  c #333434",
"4  c #343537",
"5  c #373737",
"6  c gray22",
"7  c #402008",
"8  c #412108",
"9  c #402009",
"0  c #422208",
"q  c #432308",
"w  c #442408",
"e  c #452508",
"r  c #452609",
"t  c #462608",
"y  c #472708",
"u  c #482808",
"i  c #492908",
"p  c #4A2A08",
"a  c #4B2B08",
"s  c #4C2A08",
"d  c #4C2C08",
"f  c #4C2D08",
"g  c #4D2D08",
"h  c #4D2E09",
"j  c #4E2E08",
"k  c #4F2F08",
"l  c #593806",
"z  c #593807",
"x  c #593907",
"c  c #5A3907",
"v  c #523208",
"b  c #533308",
"n  c #533309",
"m  c #573308",
"M  c #543408",
"N  c #543508",
"B  c #553508",
"V  c #563508",
"C  c #563608",
"Z  c #563708",
"A  c #573708",
"S  c #55370B",
"D  c #583308",
"F  c #573809",
"G  c #583808",
"H  c #593808",
"J  c #583908",
"K  c #593908",
"L  c #5A3908",
"P  c #5A3A08",
"I  c #5F3908",
"U  c #5C3A08",
"Y  c #5D3A08",
"T  c #5C3B08",
"R  c #5D3B08",
"E  c #5E3B08",
"W  c #5F3C08",
"Q  c #4D3613",
"!  c #46361E",
"~  c #5B3C11",
"^  c #5D3D10",
"/  c #5C3C11",
"(  c #5C3D11",
")  c #5D3D11",
"_  c #683F06",
"`  c #683F07",
"'  c #603C08",
"]  c #613C08",
"[  c #623D08",
"{  c #633E08",
"}  c #643E08",
"|  c #663F08",
" . c #673F08",
".. c #403627",
"X. c #413728",
"o. c #413829",
"O. c #423829",
"+. c #684007",
"@. c #694007",
"#. c #6A4106",
"$. c #6A4107",
"%. c #6E4407",
"&. c #674008",
"*. c #65410F",
"=. c #684008",
"-. c #694108",
";. c #684109",
":. c #6A4108",
">. c #6B4208",
",. c #6C4208",
"<. c #6C4308",
"1. c #6D4308",
"2. c #6D4408",
"3. c #6E4408",
"4. c #6F4508",
"5. c #68420D",
"6. c #744707",
"7. c #774804",
"8. c #754806",
"9. c #754807",
"0. c #774907",
"q. c #7B4C07",
"w. c #704508",
"e. c #714708",
"r. c #724608",
"t. c #724708",
"y. c #724808",
"u. c #734808",
"i. c #744808",
"p. c #764908",
"a. c #774A08",
"s. c #784A08",
"d. c #784B08",
"f. c #794B08",
"g. c #794C08",
"h. c #7A4C08",
"j. c #7B4C08",
"k. c #7B4D08",
"l. c #7A4D0A",
"z. c #7C4D08",
"x. c #7C4E08",
"c. c #7D4E08",
"v. c #7E4E08",
"b. c #7E4F08",
"n. c #7F4F08",
"m. c #7F5008",
"M. c #614114",
"N. c #654414",
"B. c #684616",
"V. c #6D4914",
"C. c #614519",
"Z. c #744E15",
"A. c #744E16",
"S. c #744F16",
"D. c #5F4B2D",
"F. c #5E4B2E",
"G. c #4D473D",
"H. c #614A27",
"J. c #674D26",
"K. c #614A28",
"L. c #604B2C",
"P. c #604C2D",
"I. c #6E5228",
"U. c #373C42",
"Y. c #374250",
"T. c #464647",
"R. c #484543",
"E. c #484643",
"W. c #6B604E",
"Q. c #69665D",
"!. c #815006",
"~. c #845307",
"^. c #805008",
"/. c #815008",
"(. c #815108",
"). c #825108",
"_. c #825208",
"`. c #835208",
"'. c #845308",
"]. c #855308",
"[. c #865408",
"{. c #875408",
"}. c #875508",
"|. c #875608",
" X c #885508",
".X c #895608",
"XX c #8B5708",
"oX c #8C5808",
"OX c #8E5908",
"+X c #8F5A08",
"@X c #8D5B0C",
"#X c #8F5C0C",
"$X c #905A08",
"%X c #915B08",
"&X c #925C08",
"*X c #935C08",
"=X c #925D08",
"-X c #935D08",
";X c #925C09",
":X c #915D0A",
">X c #945D08",
",X c #955E08",
"<X c #955F08",
"1X c #965E08",
"2X c #965F08",
"3X c #975F08",
"4X c #965F09",
"5X c #996007",
"6X c #986008",
"7X c #996008",
"8X c #996108",
"9X c #986109",
"0X c #9A6208",
"qX c #9A6308",
"wX c #9B6308",
"eX c #9A6309",
"rX c #9C6408",
"tX c #9D6508",
"yX c #9E6608",
"uX c #9F6608",
"iX c #9F6708",
"pX c #A06808",
"aX c #A16808",
"sX c #A16908",
"dX c #A26A08",
"fX c #A36A08",
"gX c #A36B08",
"hX c #A36B09",
"jX c #A46C08",
"kX c #A56D08",
"lX c #A56D09",
"zX c #A56E08",
"xX c #A66E08",
"cX c #A76F08",
"vX c #A56D0A",
"bX c #A87008",
"nX c #A97108",
"mX c #AA7208",
"MX c #AB7308",
"NX c #AB7309",
"BX c #AC7408",
"VX c #AD7508",
"CX c #AF7708",
"ZX c #B07808",
"AX c #B37B08",
"SX c #B47C08",
"DX c #B57D08",
"FX c #B67E08",
"GX c #B67F09",
"HX c #B88008",
"JX c #B98108",
"KX c #566C86",
"LX c #6C85A3",
/* pixels */
"                                                                                                                ",
"                                                                                                                ",
"                                                                                                                ",
"                                                                                                                ",
"                                                6XbXJXJXJXJXbX6X                                                ",
"                                          iXbXGXGXGXJXJXJXJXGXGXGXbXiX                                          ",
"                                    6XxXhXbXAXJXJXJXJXJXJXJXJXJXJXAXbXhXxX6X                                    ",
"                                  6XiXxXbXCXJXJXJXJXJXJXJXJXJXJXJXJXCXbXxXiX6X                                  ",
"                                &XiXbXbXbXCXGXJXJXJXJXJXJXJXGXJXJXGXCXbXbXbXiX&X                                ",
"                              ^.oXiXxXbXbXbXCXGXJXJXJXJXJXJXJXJXGXCXbXbXbXxXiXoX^.                              ",
"                              %X6XxXbXbXbXbXbXCXCXAXJXGXJXJXAXCXCXbXbXbXbXbXxX6X%X                              ",
"                              &XhXbXbXbXbXbXbXbXxXCXAXCXCXAXCXxXbXbXbXbXbXbXbXhX&X                              ",
"                             X&XhXbXbXbXbXbXbXbXbXbXxXxXxXxXbXbXbXbXbXbXbXbXbXhX&X X                            ",
"                            4X6XiXbXbXbXbXbXbXbXbXbXbXbXbXbXbXbXbXbXbXbXbXbXbXiX6X4X                            ",
"                          O.#X5XiXbXbXbXbXbXbXbXbXbXbXbXbXbXbXxXbXbXbXbXbXbXbXiX5X#XO.                          ",
"                        ; - @X5XiXbXbXbXbXbXbXbXbXbXbXbXbXbXbXbXbXbXbXbXbXbXbXiX5X@X- ;                         ",
"                        ..C.&X6XhXbXbXbXbXbXbXbXbXbXbXbXbXbXbXbXbXbXbXbXbXbXbXhX6X&XC.X.                        ",
"                          ~.4X6XiXxXbXbXbXbXbXbXbXbXbXbXbXbXbXbXbXbXbXbXbXbXxXiX6X4X~.                          ",
"                          ^.4X6X6XiXxXbXbXbXbXbXbXbXbXbXbXbXbXbXbXbXbXbXbXxXiX6X6X4X^.                          ",
"                        D.^.4X6X4XiXbXbXbXbXbXbXbXbXbXbXbXbXbXbXbXbXbXbXbXbXiX4X6X4X^.D.                        ",
"                      L.Z.^.4X6X6X6XiXxXbXbXbXbXbXbXbXbXbXbXbXbXbXbXbXbXxXiX6X6X6X4X^.Z.P.                      ",
"                    H.Z.!.^.4X6X6X6X6XhXhXxXbXbXbXbXbXbXbXbXbXbXbXbXbXxXhX6X6X6X6X4X^.!.Z.K.                    ",
"                  3.h.^.^.}.4X6X6X6X6X6X4XiXxXxXxXxXbXbXbXbXxXxXxXxXxXhX6X6X6X6X6X4X}.^.^.h.3.                  ",
"                ^.n.^.m.}.4X6X6X6X6X6X6X6X6X6X6X6XhXbXbXbXbXhX6X6X6X6X6X6X6X6X6X6X6X4X}.m.^.n.^.                ",
"              ^.^.^.^.n. X6X6X6X6X6X6X6X6X4X6XhXxXxXbXbXbXbXxXxXhX6X4X6X6X6X6X6X6X6X6X Xn.^.^.^.^.              ",
"            ^.^.^.^.^.n.}.6X6X6X6X6X6X6X4X6XhXbXbXbXbXbXbXbXbXbXbXhX6X4X6X6X6X6X6X6X6X}.n.^.^.^.^.^.            ",
"            ^.^.^.^.^.n.}.6X6X6X6X6X6X6X6XhXbXbXbXbXbXbXbXbXbXbXbXbXhX6X6X6X6X6X6X6X6X}.n.^.^.^.^.^.            ",
"          ^.^.n.n.n.m.n.}.6X6X6X6X6X6X6XhXbXbXbXbXbXbXbXbXbXbXbXbXbXbXhX6X6X6X6X6X6X6X}.n.m.n.n.n.^.^.          ",
"          ^.^.s.=.,.h.^.}.6X6X6X6X6X6X6XhXbXbXbXbXbXbXbXbXbXbXbXbXbXbXhX6X6X6X6X6X6X6X}.^.h.,.=.s.^.^.          ",
"        =.n.a.,. .=.h.^. X6X6X6X6X6X6X6XhXbXbXbXbXbXbXbXbXbXbXbXbXbXbXhX6X6X6X6X6X6X6X X^.h.=. .,.a.n.=.        ",
"        @.6.%.@.@.=.h.^.'.oX4X6X6X6X6X6XhXbXbXbXbXbXbXbXbXbXbXbXbXbXbXhX6X6X6X6X6X4XoX'.^.h.=.@.@.%.6.@.        ",
"        M.^ ^ ~ ^ =.h.^.m.^.4X6X6X6X6X6XiXxXbXbXbXbXbXbXbXbXbXbXbXbXxXiX6X6X6X6X6X4X^.m.^.q.` ^ ~ ~ ^ M.        ",
"        R.2 % % & *.h.^.^.^.4X6X6X6X6X6X6XiXxXbXbXbXbXbXbXbXbXbXbXxXiX6X6X6X6X6X6X4X^.^.^.h.N.= % % 2 R.        ",
"        T.3 > > 5   V.9.^.^.'.&X6X6X6X6X6X6XiXxXbXbXbXbXbXbXbXbXxXiX6X6X6X6X6X6X&X'.^.^.9.I.LXU.+ > 3 T.        ",
"        5 1 > <   J.5.9.^.^.^.}.%X6X6X6X6X6X6XiXiXxXbXbXbXbXxXiXiX6X6X6X6X6X6X%X}.^.^.^.9.B.W.KXY.+ 1 6         ",
"          , # !   ` @.w.h.^.^.n.}.&X6X6X6X6X6X4X4XiXhXhXhXhXiX4X4X6X6X6X6X6X&X}.n.^.^.h.w.` =.Q.G.# , +         ",
"          & Q x G  .=. .3.^.^.^.n.'.&X4X4X6X6X6X6X6X6X6X6X6X6X6X6X6X6X4X4X&X'.n.^.^.^.3. .=. .x x Q &           ",
"          S F G G G  .&.3.n.^.^.^.^.^.^.oX6X4X4X6X6X6X6X6X6X6X6X4X4X6XoX^.^.^.^.^.^.n.3.&. .G G G F S           ",
"          x G G S a S [ =.w.n.^.^.^.^.^.^.}.}.}.4X6X6X6X6X6X6X4X}.}.}.^.^.^.^.^.^.n.w.=.[ S a S G G x           ",
"          a b G b 8 b R [ =.w.n.^.^.^.^.^.n.n.^. XoX X X X XoX X^.n.n.^.^.^.^.^.n.w.=.[ R b 8 b G b a           ",
"          X a S S a k S U [ &.u.s.h.^.^.^.^.^.^.h.h.m.n.n.m.h.h.^.^.^.^.^.^.h.s.u.&.[ R S k a S S a X           ",
"            X a S S y a S x  .=.=.3.n.n.n.n.^.n.3.a.^.^.^.^.a.3.n.^.n.n.n.n.3.=.=. .G S a y S S a X             ",
"                y S y 8 a G G  .=.=.=.=.=.a.n.,.s.n.^.^.^.^.n.s.,.n.a.=.=.=.=.=. .G G a 8 y S y                 ",
"                  y k y 8 a S R R R R  .=.=.3.=.h.^.'.%XoX'.^.h.=.3.=.=. .R R R R S a 8 y k a                   ",
"                  8 a k y 8 a k b G G W [ [ [ [ s.}.&XhXxX4X}.s.[ [ [ [ W G G b k a 8 y k k                     ",
"                    X k b y 8 X a b b S G G G G w. XiXbXGXhX Xw.G G G G S b b a X 8 y b k X                     ",
"                          S y 8 8 8 8 b S S S S [ ^.iXxXxXiX^.[ S S S S b 8 8 8 8 y S                           ",
"                            S y X 8 8 8 y y y y S u.}.}.}.}.u.S y y y y 8 8 8 X y b                             ",
"                                a a 8 X X X X 8 y R u.w.w.u.R y 8 X X X X 8 a a                                 ",
"                                  b 8 8 8 y a 8 X s D m m D s X 8 a y X 8 8 b                                   ",
"                                            S 8 8 8 8 8 8 8 8 8 8 S                                             ",
"                                                                                                                ",
"                                                                                                                ",
"                                                                                                                ",
"                                                                                                                ",
"                                                                                                                "
};
