/* XPM */
static char *ceec4b3e76a5423a839f0dd242a250f2mVRIDkXQCy34znkZ[] = {
/* columns rows colors chars-per-pixel */
"56 56 169 2 ",
"   c None",
".  c #563F32",
"X  c #5E3F31",
"o  c #564032",
"O  c #5C4233",
"+  c #5E4739",
"@  c #624434",
"#  c #624937",
"$  c #644738",
"%  c #62483A",
"&  c #7F4D3F",
"*  c #7F5142",
"=  c #8E3F37",
"-  c #8B3C39",
";  c #963F3D",
":  c #8F4236",
">  c #84443C",
",  c #8C443B",
"<  c #854B3E",
"1  c #8C4B3E",
"2  c #934336",
"3  c #9B4437",
"4  c #94453B",
"5  c #9B453B",
"6  c #944B3D",
"7  c #9C4A3C",
"8  c #8E513F",
"9  c #94523E",
"0  c #9C523E",
"q  c #A24636",
"w  c #A24837",
"e  c #A1473A",
"r  c #A24B3C",
"t  c #A84A3B",
"y  c #A3533E",
"u  c #AB553E",
"i  c #A6583F",
"p  c #AB593F",
"a  c #B1553F",
"s  c #B1583F",
"d  c #B85A3F",
"f  c #8B4640",
"g  c #864D41",
"h  c #8C4D41",
"j  c #934740",
"k  c #9D4540",
"l  c #934D41",
"z  c #9B4D41",
"x  c #914F4B",
"c  c #865343",
"v  c #8C5243",
"b  c #8E5A46",
"n  c #8D544A",
"m  c #8D5A4A",
"M  c #945343",
"N  c #9B5443",
"B  c #955946",
"V  c #9C5A45",
"C  c #94554A",
"Z  c #9C554B",
"A  c #955B4B",
"S  c #9C5B4B",
"D  c #965D50",
"F  c #9D5B51",
"G  c #A34643",
"H  c #A24C41",
"J  c #A45441",
"K  c #AA5541",
"L  c #A15844",
"P  c #A45847",
"I  c #A75947",
"U  c #A05D47",
"Y  c #A55E46",
"T  c #A45A44",
"R  c #AB5841",
"E  c #AB5B43",
"W  c #AF5840",
"Q  c #AC5843",
"!  c #A85844",
"~  c #AB5945",
"^  c #AD5945",
"/  c #AE5A44",
"(  c #A85C46",
")  c #AC5F46",
"_  c #AC5A42",
"`  c #A1564C",
"'  c #A35749",
"]  c #A25E48",
"[  c #A1594D",
"{  c #A65A4D",
"}  c #A35C4B",
"|  c #AD5F48",
" . c #AF5E49",
".. c #A85C4D",
"X. c #AB5C4C",
"o. c #B15741",
"O. c #B25841",
"+. c #B35A41",
"@. c #B05B42",
"#. c #B65B41",
"$. c #B35C41",
"%. c #B55C43",
"&. c #B15B45",
"*. c #B15C44",
"=. c #B25D45",
"-. c #B05E45",
";. c #B25F45",
":. c #B35C46",
">. c #B15F47",
",. c #B65E45",
"<. c #B35B42",
"1. c #B85C41",
"2. c #B85E43",
"3. c #B95E43",
"4. c #BB5F43",
"5. c #BD5D41",
"6. c #BA5D44",
"7. c #B15D48",
"8. c #B35D49",
"9. c #B45B4C",
"0. c #B25E4B",
"q. c #BF5D48",
"w. c #A05D50",
"e. c #A35B51",
"r. c #A95D51",
"t. c #AB5B51",
"y. c #B25D51",
"u. c #9F6047",
"i. c #95614A",
"p. c #9E604C",
"a. c #9D614C",
"s. c #956452",
"d. c #9C6352",
"f. c #9B6954",
"g. c #A46146",
"h. c #AB6246",
"j. c #A1624E",
"k. c #A3634E",
"l. c #A7624E",
"z. c #A3624C",
"x. c #A86049",
"c. c #A8634F",
"v. c #AC624C",
"b. c #B06046",
"n. c #B26344",
"m. c #BB6044",
"M. c #BA6047",
"N. c #BE6145",
"B. c #BF6145",
"V. c #BF6045",
"C. c #B6634B",
"Z. c #B4664E",
"A. c #B2614D",
"S. c #BB6048",
"D. c #BC604A",
"F. c #A66551",
"G. c #A36351",
"H. c #AA6752",
"J. c #AF6752",
"K. c #AD6251",
"L. c #A56952",
"P. c #AB6957",
"I. c #B26453",
"U. c #B86451",
"Y. c #B56956",
"T. c #BA6956",
"R. c #B76958",
"E. c #C05F45",
"W. c #C2614A",
/* pixels */
"                                                                                                                ",
"                                                                                                                ",
"                                                                                                                ",
"    N Z N Z Z N Z N N w.r.r...P 5.N.N.C.(  .~ ~ R ;.8.9.Z.N G H H H _ &.8. . .%.m.S.;.^ ;.;.P N J r y V Y E b.b.",
"    M l h h h 1 M N M S ` Z Z N d 4.4.;.N J J J J J ^ ! x.M 5 k z z y K K J L K u K K i R _ N 6 7 7 7 6 9 0 y T ",
"    l l l h f > > l v S Z Z Z V #.m.4.b.N u J y r r K J ] l 5 5 k z y r y J N K y y J J K K J 6 7 7 7 1 6 7 J J ",
"    h h h h h < < < m B [ [ Z M @.4.$.;.M r 7 6 7 J N J U l 4 5 k z y r y y V N T T Z Z Z N V 9 r e 7 1 J J J ~ ",
"    v v v v v v v h b M Z { N M @.%.%.@.9 5 2 , , 4 7 5 N h 4 j 4 z K _ K y j.F.H.K.j.j.l.v.a.6 r r 5 1 N J J J ",
"    v M M C M M M < v M N ' N 8 s 6.1.@.6 t e 3 2 3 e q N h 4 4 k z K @.K J V A.A.A.X.X.A.A.T 6 r r 3 < 7 J J R ",
"    h l h M C M C l v v N N N 8 u 6.N.$.6 r r e e e e q N h 4 2 k z y &.o.J V 8.A.A. . .v.U.X.6 r r 5 < N J J ^ ",
"    g < > h v v n M A v l C Z M u @.#.;.9 r e e 3 3 7 q 0 < - - ; l 0 J u T B P X.X.~ ~ X.v.x.6 5 5 6 < 0 y J ^ ",
"    M M < v v h < l B B Z Z N M 9 N N z.b 8 M M M M M N a.B L N M u.u.V l.H.a.L T T S B N ] u.a.z.z.j.z.V N V l.",
"    7 r 2 , 1 7 4 r N N @.R u r i i _ x.h > 1 N M y K K L ~ W.#.u u ;._ 6.8.T a a a J 0 u R R L @._ %.6.%.#.#.6.",
"    7 r 3 1 1 5 7 r N N _ R K K _ _ $.( < > l N M y @.a R ^ D.6.#.@.%.6.6.b.V u K u T y R _ E J u @.6.%.$.6.S.D.",
"    7 e e M h 2 7 r M V K u i _ $.$.@.( < 6 z N M i _ @.E _ q.q.1.@.K 6.6.8.V u u u J L _ _ T L s #.4.%.%.6.q.W.",
"    7 7 r L 1 = 7 z N S ] S V V V V V l.1 z z l M u u _ E S S S S N M V T j.T u u K J N R R E V T R T P Y Y Y v.",
"    4 2 4 N 1 = 7 7 N A S A B B B C B a.h 6 z 1 v J K K R v 8 h h h < h h M N a o.u T 9 R R R B Z Z Z C F F } ..",
"    4 4 2 N 6 2 6 4 1 v Z N M M M l l B h l N M v y K J T h 1 > h l < h 1 h 9 s _ u N 9 p p i M Z [ [ Z Z e.e.e.",
"    5 3 2 z 6 2 4 4 < c M N N M M N N A f l l l M y K K L h l 1 l l h h f h 1 y K K J 9 p _ p N Z S [ [ S e.r.r.",
"    6 6 , 6 B , 6 6 v * 1 v M M M M M d.h 1 l M A 0 0 J T v h < > > < g g g v 6 N J N 9 J N J M M M B C B C S S ",
"    S V N V z.Y z.j.d.c 1 M N m A S S f.S L N V ] V V T V v l h h A S S D s.c , , 6 6 6 6 6 6 S v.l.L.A M V T Y ",
"    Y J J J J K K l.A , 6 7 r M l Z e.S N K J J J J K K N , 5 7 z S ....t.d.g 2 4 4 2 : : 2 4 S A.8.8.N N K K ^ ",
"    ! y J  .X.I J P S 1 7 e e M Z F r.S N J J J J y K J N , 3 7 z B { ..I d.< 4 2 3 3 2 3 q 3 N X.0.A.N 7 J J E ",
"    Q K ! X. .X.8.~ j.6 r r e M e.r.e.S N K K J y r u y N 1 7 7 7 A { t.X.G.M 6 6 6 6 6 r r J N  .0.A.V 6 7 K E ",
"    V 9 M M B A V S a.0 r t 5 h F r.w.F C M B V V V S V B 1 7 7 z A r.t...} D S j.} d.d.d.S a.S X.Y v.B N J K E ",
"    y 2 , 4 4 7 4 3 N 6 r e 4 h Z e.e.d.n j j j j j z k l < 4 5 z S e.t...S l e r e 4 5 5 r 7 B X.Y Y M 0 J K ;.",
"    r 5 4 7 r 7 3 3 6 6 r r 7 v Z e.e.D h ; 5 4 4 , 5 k 4 , 4 4 z S t.r.{ } l 7 r 7 7 5 5 7 4 B A.X.X.M 0 J J ^ ",
"    7 5 3 5 5 3 3 7 0 7 r e r M Z Z Z F f 5 5 , , , 5 k 4 , 4 4 7 S t.r...} l 5 7 7 5 7 7 5 7 B 8. .I v 6 J J ^ ",
"    M 6 M M M h M M B M 6 7 0 M Z C h C > , , > > f f l f 1 l 6 M A C S [ G.B 4 l l 1 1 l 6 l b S N M c 1 M N X.",
"    Y T E ( V V U U a.u.y 0 0 7 7 7 5 N C { { C n n C Z S V J J T L N N ! U B B B B m g v v v v v v v c g v M } ",
"    E _ u J 9 0 y i U N e e e w e e e M S t.t.t.n x S [ S N y J J J y y J J M l l l v f l h v v h M M M v M M U ",
"    ( K y J 9 0 0 y V N r r e e e e 7 N S t.t.t.A n e.S F V y J J J 0 7 y N v l z l h h h h v v M M M M h M M S ",
"    P J J L M 0 7 y V M 7 r 7 5 5 5 3 l S r.e.t.A C F Z S B N J J J 0 7 7 9 v l z l g h h h h c v v v < g v v A ",
"    ~ J J J B 0 y y U d.j.G.a.a.j.G.j.d.[ t.t.t.A S e.Z F a.S U V V S S S i.v l l l g v N N M h l l 1 < l N Z l.",
"    R J J J 9 9 J y V j.T.Y.I.I.Y.R.Y.P.r.t.9.t.n C [ S D N J J J J J I K L v l l l h v Z N B 1 5 e 3 2 3 r e K ",
"    K J J J N 0 y y B B ..A.I.I.I.I.Y.F.S t.t.t.m C [ Z A M r J J J y J J N < h l l h h Z Z M , 7 r e 3 7 r 5 K ",
"    K J J J N 0 y 0 M v Z X.X.A.K.K.I.F.S y.y.y.A C Z C C 8 r J J J J J 0 N & > l h g < M Z v > 5 5 7 7 7 7 3 r ",
"    V J Z S A 9 9 B i.b M S S S S S j.d.A S S S D n v n A m M M N V N N N B c < h l v v M B B v 6 9 M M M M M V ",
"    J r 7 y J z 6 6 V b v B B m , N J S v v v v C C v B d.L.R T b.] 6 N 7 6 M J N T J T ! ~ z.U _ T R u.L J P b.",
"    H r r r e r 7 2 l v l M Z v 4 7 H N h h l l l l M l A z.1.#.6.L 4 5 5 4 M 0 N J i J R @.E V i J _ V 0 7 y 8.",
"    H r 7 r 7 2 3 3 1 v M 1 M v 4 H 7 N < < l l M M M l B z.1.#.6.T , 2 7 7 N y r J R J u u E V y T i V 0 y y R ",
"    N 7 6 6 , , , 4 v v M l h < 4 H r N & v M M B B B B A z.#.@.6.T , 5 7 7 N y J J N 0 0 0 T M i _ _ V J K J ^ ",
"    g.Y T Y V V Y T u.M N M v < 7 k 7 Z A ] U U u.g.u.U j.x.4.#.4.V 4 r r z a.X.Y ] U Y U U ] M i p p V J J J  .",
"    R K _ R i u @.u Y B N N v < 7 7 r Z U _ p p i i R p ( x.q.4.6.T 4 r r z Y D.C.0.0.8.8.8. .N p _ p V 0 J y  .",
"    R u i u R R _ _ Y M N N B h r r r Z V _ _ R T i R _ h.x.W.m.6.] 4 r r z U 7.8.8.8.C.8.8.8.T _ _ @.V N K K 8.",
"    T i 0 0 0 0 L ( z.v N M C h 7 7 7 Z M i L T T J J R U g.%.$.$.V , 2 7 N V  . . . .8.8.0.8.N i J R N 0 J K  .",
"    L.j.j.d.s.A a.a.f.A B B S M 6 6 6 V B V u.u.A b v v i.z.h.x.z.a.M M V j.a.z.] S V N Z [ V M N M N V V V N G.",
"    I.y.y.K.A l N N B L ^ ^ K K 0 J K N P &.$.@.B A S Z a.g._ T T T L h.b.h.V J H J M 7 z H 6 N ! P P P I Y X.v.",
"    I.X.X.I.A < l M B N K K J J 7 i u N N _ @.K v C Z Z A V i y R _ i E $.h.N r r 7 6 3 5 H 4 N L  .~ J L X.I ..",
"    ! ....K.A l z M B J K u y 0 y u K J N _ K J v h Z Z A 9 0 0 T R R R $.h.N r r 5 1 4 7 H 7 M I ~ J N N L P K.",
"    ' ....K.A M z N S M N J N M M M N V P @.J J M C S S D i.9 M M V U V N z.N e r r l 3 7 7 7 B S V V M M V V j.",
"    { ....K.A M M M A N Z Z N N N N N V P _ J J M C F F A S ..N ] K.I.K...G.N e e 7 M 7 4 2 6 v B M M M M M B a.",
"    ..X...K.A l l l v 7 r 7 r 7 H r 7 N ! _ J J M Z S F C ] A...v.A.I.K.X.} N e 4 7 M 7 7 2 , v N M l l M M M S ",
"    X.X.X.y.B l N 1 < z H 7 7 H H H H N P K K J M n C F C ] I.v.A.v.K.A.7.j.N e 7 7 M 7 H 7 7 v N M h 1 1 M M S ",
"    { y...K.D < l l g z H 7 7 k H H H N J K 0 0 M n C e.C ] U.v.v.X.X... .G.N r r r M 7 7 7 7 v 1 1 < < < M N S ",
"    o % $ % + . O O O O O O O O O O O O $ @ O O O O O O O O $ $ $ $ @ $ $ $ O @ @ @ O @ @ X O O O O O O O O # o "
};
